<svg width="300" height="382" viewBox="0 0 300 382" fill="none" xmlns="http://www.w3.org/2000/svg">
<path d="M266.256 133.173H241.032V166.659H266.256V133.173Z" fill="#E0E0E0"/>
<path d="M264.546 133.173H239.322V166.659H264.546V133.173Z" fill="#FAFAFA"/>
<path d="M264.558 166.667H239.316V133.165H264.558V166.667ZM239.358 166.667H264.558V133.188H239.358V166.667Z" fill="#E0E0E0"/>
<path d="M261.156 137.673H242.712V162.151H261.156V137.673Z" fill="#FAFAFA"/>
<path d="M242.712 162.319C242.585 162.567 242.434 162.793 242.262 162.992C241.962 163.389 241.548 163.924 241.062 164.52C240.576 165.116 240.174 165.62 239.862 165.987C239.705 166.203 239.528 166.393 239.334 166.552C239.462 166.308 239.613 166.085 239.784 165.887C240.078 165.49 240.492 164.955 240.984 164.359C241.476 163.763 241.878 163.259 242.184 162.892C242.34 162.674 242.517 162.481 242.712 162.319V162.319Z" fill="#E0E0E0"/>
<path d="M261.156 162.258C261.35 162.426 261.53 162.621 261.69 162.839C261.996 163.213 262.416 163.741 262.89 164.367C263.364 164.993 263.754 165.505 264.042 165.895C264.211 166.098 264.36 166.327 264.486 166.575C264.291 166.413 264.114 166.221 263.958 166.002C263.646 165.62 263.226 165.093 262.758 164.474C262.29 163.855 261.888 163.336 261.6 162.946C261.431 162.74 261.282 162.509 261.156 162.258V162.258Z" fill="#E0E0E0"/>
<path d="M261.108 137.742C261.241 137.497 261.394 137.272 261.564 137.069C261.858 136.672 262.272 136.137 262.734 135.541C263.196 134.945 263.628 134.441 263.934 134.067C264.094 133.853 264.273 133.663 264.468 133.501C264.335 133.746 264.182 133.971 264.012 134.174C263.718 134.571 263.304 135.106 262.842 135.702C262.38 136.298 261.948 136.802 261.642 137.169C261.482 137.385 261.303 137.577 261.108 137.742V137.742Z" fill="#E0E0E0"/>
<path d="M242.664 137.803C242.472 137.634 242.295 137.439 242.136 137.222C241.824 136.848 241.404 136.321 240.936 135.694C240.468 135.068 240.072 134.556 239.784 134.166C239.615 133.963 239.466 133.735 239.34 133.486C239.532 133.649 239.707 133.842 239.862 134.059C240.174 134.433 240.594 134.968 241.062 135.587C241.53 136.206 241.926 136.725 242.214 137.115C242.387 137.318 242.539 137.549 242.664 137.803V137.803Z" fill="#E0E0E0"/>
<path d="M261.108 162.159C261.106 162.118 261.106 162.077 261.108 162.037V161.693C261.108 161.387 261.108 160.929 261.108 160.371C261.108 159.218 261.108 157.529 261.108 155.382C261.108 151.096 261.108 144.992 261.072 137.673L261.144 137.765H242.754L242.838 137.658C242.838 146.642 242.838 155.054 242.838 162.144L242.766 162.052L256.086 162.098H259.83H256.104L242.742 162.144H242.676V162.06C242.676 154.97 242.676 146.558 242.676 137.574V137.474H261.18V137.566C261.18 144.908 261.15 151.035 261.144 155.337C261.144 157.468 261.144 159.156 261.144 160.302C261.144 160.868 261.144 161.303 261.144 161.609V161.937C261.108 162.121 261.108 162.159 261.108 162.159Z" fill="#E0E0E0"/>
<path d="M255.018 146H248.862V153.839H255.018V146Z" fill="#EBEBEB"/>
<path d="M286.056 70.6089H248.976V119.826H286.056V70.6089Z" fill="#E0E0E0"/>
<path d="M283.548 70.6089H246.468V119.826H283.548V70.6089Z" fill="#FAFAFA"/>
<path d="M283.56 119.841H246.456V70.5936H283.56V119.841ZM246.48 119.841H283.536V70.6242H246.48V119.841Z" fill="#E0E0E0"/>
<path d="M278.568 77.2252H251.454V113.21H278.568V77.2252Z" fill="#FAFAFA"/>
<path d="M251.454 113.454C251.258 113.811 251.032 114.142 250.782 114.44C250.35 115.02 249.744 115.807 249.06 116.663C248.376 117.519 247.752 118.283 247.26 118.825C247.026 119.142 246.762 119.422 246.474 119.658C246.665 119.297 246.888 118.966 247.14 118.672C247.572 118.092 248.184 117.297 248.868 116.441C249.552 115.586 250.182 114.822 250.668 114.279C250.9 113.961 251.164 113.683 251.454 113.454V113.454Z" fill="#E0E0E0"/>
<path d="M278.562 113.362C278.849 113.605 279.111 113.892 279.342 114.218C279.798 114.768 280.416 115.54 281.088 116.411C281.76 117.282 282.36 118.076 282.786 118.665C283.032 118.964 283.25 119.3 283.434 119.665C283.152 119.42 282.893 119.135 282.66 118.817C282.204 118.267 281.586 117.488 280.914 116.617C280.242 115.746 279.636 114.944 279.21 114.325C278.966 114.036 278.749 113.713 278.562 113.362Z" fill="#E0E0E0"/>
<path d="M278.49 77.3245C278.677 76.9583 278.901 76.6245 279.156 76.3313C279.594 75.7506 280.2 74.9637 280.884 74.108C281.568 73.2524 282.192 72.4884 282.654 71.9459C282.891 71.6351 283.152 71.356 283.434 71.1132C283.245 71.4781 283.021 71.8118 282.768 72.1064C282.336 72.687 281.73 73.4739 281.046 74.3296C280.362 75.1853 279.732 75.9569 279.246 76.4917C279.019 76.8037 278.765 77.0829 278.49 77.3245V77.3245Z" fill="#E0E0E0"/>
<path d="M251.4 77.4085C251.117 77.1658 250.857 76.8812 250.626 76.5605C250.164 76.0104 249.546 75.2311 248.874 74.3602C248.202 73.4892 247.608 72.6946 247.182 72.0682C246.934 71.7712 246.714 71.4378 246.528 71.075C246.813 71.3145 247.073 71.5995 247.302 71.923C247.758 72.4731 248.382 73.2447 249.054 74.1157C249.726 74.9866 250.326 75.7888 250.752 76.4077C250.998 76.7076 251.216 77.0435 251.4 77.4085V77.4085Z" fill="#E0E0E0"/>
<path d="M278.49 113.21C278.487 113.151 278.487 113.092 278.49 113.034C278.49 112.912 278.49 112.751 278.49 112.537C278.49 112.086 278.49 111.437 278.49 110.589C278.49 108.885 278.49 106.41 278.46 103.255C278.46 96.9516 278.43 87.9747 278.406 77.2252L278.514 77.3551H251.478L251.598 77.2023C251.598 90.4118 251.598 102.766 251.598 113.187L251.496 113.057L271.068 113.126H276.57H278.022H276.588L271.11 113.164L251.472 113.225H251.364V113.087C251.364 102.666 251.364 90.3125 251.364 77.1029V76.9501H251.484H278.52H278.622V77.08C278.622 87.8677 278.586 96.8753 278.568 103.201C278.568 106.334 278.568 108.801 278.568 110.505C278.568 111.33 278.568 111.972 278.568 112.423C278.568 112.629 278.568 112.789 278.568 112.904C278.555 113.011 278.529 113.114 278.49 113.21V113.21Z" fill="#E0E0E0"/>
<path d="M269.532 89.4568H260.484V100.978H269.532V89.4568Z" fill="#EBEBEB"/>
<path d="M50.628 287.6C53.718 285.568 57.354 285.308 60.786 286.026C62.628 286.416 64.548 287.119 65.802 288.884C67.056 290.649 67.296 293.743 65.856 295.263C64.998 296.165 63.804 296.302 62.694 296.279C60.006 296.241 57.024 295.637 54.894 297.7C53.694 298.869 52.854 300.825 51.39 301.398C49.926 301.971 48.342 300.886 47.586 299.244C46.8864 297.532 46.7317 295.543 47.154 293.689C47.3264 292.403 47.7295 291.184 48.332 290.128C48.9345 289.072 49.7202 288.207 50.628 287.6Z" fill="#EBEBEB"/>
<path d="M43.548 270.204C45.438 273.634 49.11 272.496 50.814 270.403C52.518 268.309 53.214 265.268 53.892 262.365C55.386 255.741 56.892 248.797 55.782 242.051C55.5155 240.005 54.8094 238.093 53.742 236.527C53.2033 235.754 52.5144 235.176 51.7444 234.85C50.9745 234.524 50.1507 234.462 49.356 234.67C47.508 235.289 46.356 237.604 45.522 239.797C43.0736 246.283 41.7905 253.381 41.766 260.578C41.766 263.924 42.066 267.454 43.566 270.204" fill="#EBEBEB"/>
<path d="M38.358 275.132C40.41 272.03 40.8 267.492 39.888 263.626C38.976 259.76 36.888 256.437 34.536 253.74C31.7355 250.566 28.4742 248.121 24.936 246.543C23.5692 245.842 22.0999 245.524 20.628 245.611C19.8958 245.668 19.1856 245.951 18.5584 246.435C17.9313 246.92 17.406 247.591 17.028 248.392C16.02 250.844 16.986 253.816 18.03 256.238C19.8724 260.517 21.9769 264.604 24.324 268.462C26.214 271.556 28.374 274.612 31.248 276.01C34.122 277.408 37.11 277.248 38.634 274.704" fill="#EBEBEB"/>
<path d="M43.422 322.034C43.5199 321.52 43.5762 320.995 43.59 320.467C43.68 319.337 43.788 317.908 43.92 316.212C44.086 314.114 44.3364 312.028 44.67 309.962C45.1159 307.446 45.7177 304.978 46.47 302.582C47.2069 300.194 48.2025 297.949 49.428 295.913C50.4294 294.253 51.7083 292.899 53.172 291.947C54.1625 291.319 55.2262 290.899 56.322 290.702C56.7275 290.683 57.13 290.606 57.522 290.473C57.1089 290.423 56.6931 290.423 56.28 290.473C55.1435 290.584 54.0319 290.954 52.998 291.565C51.4565 292.486 50.1048 293.852 49.05 295.553C47.7696 297.62 46.7365 299.917 45.984 302.368C45.2134 304.795 44.6111 307.303 44.184 309.863C43.8673 311.953 43.6489 314.066 43.53 316.189C43.422 318 43.386 319.467 43.362 320.475C43.3397 320.996 43.3599 321.518 43.422 322.034V322.034Z" fill="#E0E0E0"/>
<path d="M43.65 318.756C43.6876 318.504 43.6997 318.248 43.686 317.992C43.686 317.45 43.686 316.762 43.686 315.922C43.686 314.119 43.686 311.521 43.758 308.282C43.884 301.856 44.316 294.942 45.156 285.194C45.954 276.026 47.016 265.33 48.156 258.415C48.396 256.842 48.642 255.421 48.87 254.175C49.098 252.93 49.272 251.883 49.47 250.989L49.8 249.064C49.8539 248.833 49.8861 248.594 49.896 248.354C49.8086 248.569 49.7421 248.797 49.698 249.033C49.578 249.553 49.422 250.21 49.23 251.02C49.038 251.83 48.822 252.884 48.6 254.152C48.378 255.421 48.078 256.811 47.814 258.385C46.4168 266.589 45.3672 274.883 44.67 283.23C43.83 293.002 43.47 301.895 43.416 308.335C43.416 311.559 43.416 314.164 43.506 315.975C43.548 316.823 43.578 317.503 43.608 318.046C43.5992 318.284 43.6133 318.522 43.65 318.756V318.756Z" fill="#E0E0E0"/>
<path d="M43.686 301.597C43.7318 300.877 43.7318 300.154 43.686 299.435C43.62 298.044 43.47 296.035 43.164 293.567C42.793 290.686 42.2942 287.835 41.67 285.026C40.9362 281.571 39.9975 278.192 38.862 274.918C36.9073 268.881 34.1079 263.346 30.6 258.583C29.9935 257.767 29.3461 257.002 28.662 256.291C28.362 255.971 28.098 255.65 27.834 255.398L27.084 254.741C26.6322 254.301 26.1526 253.91 25.65 253.572C25.566 253.709 27.678 255.291 30.342 258.92C33.7348 263.716 36.4599 269.214 38.4 275.178C39.5127 278.431 40.4548 281.774 41.22 285.186C41.952 288.326 42.42 291.214 42.81 293.643C43.2 296.073 43.368 298.075 43.488 299.45C43.5097 300.171 43.5759 300.889 43.686 301.597Z" fill="#E0E0E0"/>
<path d="M30.66 331.859L32.01 355.413H55.776L57.126 331.859H30.66Z" fill="#E0E0E0"/>
<path d="M59.964 322.576H28.368V331.859H59.964V322.576Z" fill="#E0E0E0"/>
<path d="M28.368 354.511V357.086H29.85H59.436V354.511H28.368Z" fill="#EBEBEB"/>
<path d="M31.308 361.617L29.85 357.086H58.308L56.61 361.617H31.308Z" fill="#E0E0E0"/>
<path d="M56.682 339.56C56.682 339.56 56.682 339.636 56.574 339.774L56.22 340.377L54.834 342.669L54.774 342.769L54.714 342.662L51.312 336.672H51.51L48.156 342.715L48.054 342.899L47.934 342.723L43.968 336.71H44.196L43.974 337.062L40.422 342.73L40.308 342.921L40.2 342.723L36.846 336.687H37.044L32.916 342.677L32.844 342.784L32.784 342.662C32.244 341.5 31.812 340.568 31.494 339.896L31.164 339.132C31.1236 339.05 31.0894 338.963 31.062 338.872C31.062 338.872 31.116 338.941 31.2 339.101L31.566 339.812L32.922 342.524H32.796C33.852 340.95 35.232 338.895 36.852 336.466L36.954 336.313L37.05 336.481L40.428 342.486H40.2L43.746 336.809L43.962 336.466L44.076 336.282L44.19 336.458L48.15 342.486H47.928L51.312 336.473L51.408 336.298L51.51 336.473L54.834 342.532H54.714C55.314 341.607 55.806 340.874 56.154 340.331L56.544 339.766C56.628 339.613 56.676 339.552 56.682 339.56Z" fill="#F5F5F5"/>
<path d="M57.456 331.706C57.456 331.813 51.504 331.897 44.16 331.897C36.816 331.897 30.858 331.813 30.858 331.706C30.858 331.599 36.81 331.515 44.16 331.515C51.51 331.515 57.456 331.576 57.456 331.706Z" fill="#F5F5F5"/>
<path d="M58.656 357.338C58.656 357.445 52.188 357.529 44.202 357.529C36.216 357.529 29.748 357.445 29.748 357.338C29.748 357.231 36.222 357.155 44.202 357.155C52.182 357.155 58.656 357.239 58.656 357.338Z" fill="#F5F5F5"/>
<path d="M282.24 361.616C282.24 361.723 223.032 361.815 150.006 361.815C76.98 361.815 17.76 361.723 17.76 361.616C17.76 361.51 76.956 361.418 150.006 361.418C223.056 361.418 282.24 361.51 282.24 361.616Z" fill="#263238"/>
<path d="M195.742 371L89.9431 370.532C86.9139 370.519 83.9171 369.932 81.1241 368.804C78.3311 367.676 75.7967 366.03 73.6659 363.959C71.535 361.888 69.8495 359.433 68.7058 356.735C67.5621 354.037 66.9826 351.148 67.0004 348.235L68.1157 93.0757C68.1292 90.1636 68.739 87.2826 69.9101 84.5972C71.0813 81.9118 72.7909 79.4746 74.9413 77.4247C77.0917 75.3747 79.6408 73.7523 82.4431 72.65C85.2453 71.5477 88.2459 70.9871 91.2735 71.0002L197.081 71.4753C200.109 71.4913 203.103 72.0811 205.894 73.211C208.685 74.3408 211.217 75.9885 213.345 78.06C215.474 80.1314 217.157 82.586 218.299 85.2834C219.44 87.9809 220.018 90.8683 220 93.7806L218.876 348.94C218.845 354.814 216.391 360.437 212.054 364.573C207.716 368.709 201.85 371.02 195.742 371V371Z" fill="#263238"/>
<path d="M196.898 80.3254L176.385 80.2335C175.715 80.2445 175.055 80.3822 174.441 80.639C173.827 80.8957 173.272 81.2664 172.808 81.7297C172.343 82.193 171.978 82.7399 171.733 83.3391C171.489 83.9383 171.369 84.5781 171.382 85.2217V88.8001C171.403 90.0989 170.889 91.3529 169.951 92.2877C169.014 93.2226 167.729 93.7622 166.379 93.7883L126.389 93.6044C125.72 93.5876 125.061 93.4441 124.451 93.1823C123.84 92.9205 123.288 92.5455 122.828 92.0787C122.368 91.6119 122.008 91.0625 121.769 90.4618C121.529 89.8611 121.416 89.2209 121.434 88.5779V84.9995C121.466 83.6999 120.962 82.4409 120.032 81.4976C119.102 80.5543 117.822 80.0034 116.471 79.9653H109.253L91.3053 79.881C89.1848 79.8719 87.0832 80.2647 85.1205 81.0369C83.1577 81.809 81.3724 82.9455 79.8663 84.3813C78.3602 85.8172 77.1628 87.5243 76.3427 89.4053C75.5225 91.2862 75.0955 93.3041 75.0861 95.3438L73.9947 344.373C73.9778 348.489 75.6609 352.443 78.674 355.365C81.6871 358.288 85.7835 359.94 90.0626 359.958L195.655 360.433C199.937 360.45 204.05 358.83 207.092 355.931C210.133 353.031 211.853 349.089 211.874 344.971L212.965 95.9415C212.978 93.9009 212.572 91.8779 211.771 89.9883C210.97 88.0987 209.79 86.3796 208.297 84.9292C206.805 83.4788 205.03 82.3256 203.074 81.5357C201.118 80.7457 199.019 80.3345 196.898 80.3254Z" fill="#FAFAFA"/>
<path d="M201.725 107.742C201.733 107.896 201.692 108.05 201.607 108.182C201.522 108.314 201.398 108.418 201.25 108.48C201.102 108.542 200.939 108.56 200.78 108.531C200.622 108.502 200.476 108.428 200.363 108.318C200.25 108.207 200.174 108.067 200.145 107.914C200.117 107.761 200.137 107.604 200.204 107.463C200.27 107.322 200.379 107.203 200.517 107.123C200.655 107.043 200.815 107.005 200.976 107.014C201.176 107.016 201.366 107.093 201.506 107.23C201.646 107.366 201.725 107.55 201.725 107.742Z" fill="#263238"/>
<path d="M201.717 110.362C201.717 110.506 201.673 110.647 201.59 110.767C201.506 110.886 201.388 110.98 201.25 111.035C201.112 111.09 200.959 111.104 200.813 111.076C200.666 111.048 200.531 110.979 200.425 110.877C200.319 110.775 200.247 110.645 200.218 110.504C200.189 110.363 200.204 110.217 200.261 110.084C200.318 109.951 200.415 109.837 200.54 109.757C200.664 109.677 200.811 109.634 200.96 109.634C201.161 109.634 201.354 109.711 201.495 109.847C201.637 109.984 201.717 110.169 201.717 110.362Z" fill="#263238"/>
<path d="M201.677 112.998C201.677 113.201 201.593 113.396 201.444 113.54C201.295 113.684 201.092 113.764 200.881 113.764C200.721 113.714 200.583 113.616 200.484 113.486C200.386 113.355 200.333 113.198 200.333 113.036C200.333 112.875 200.386 112.718 200.484 112.587C200.583 112.456 200.721 112.359 200.881 112.308C201.079 112.307 201.27 112.378 201.418 112.505C201.565 112.633 201.657 112.808 201.677 112.998Z" fill="#263238"/>
<path d="M203.024 147.027H97.3198C95.428 147.027 93.8944 148.502 93.8944 150.322V212.418C93.8944 214.238 95.428 215.713 97.3198 215.713H203.024C204.915 215.713 206.449 214.238 206.449 212.418V150.322C206.449 148.502 204.915 147.027 203.024 147.027Z" fill="#F5F5F5"/>
<path d="M199.933 142.567H94.2289C92.3371 142.567 90.8035 144.042 90.8035 145.862V207.959C90.8035 209.778 92.3371 211.253 94.2289 211.253H199.933C201.825 211.253 203.358 209.778 203.358 207.959V145.862C203.358 144.042 201.825 142.567 199.933 142.567Z" fill="#E0E0E0"/>
<path d="M176.058 128.622H174.982L174.783 129.097H174.234L175.261 126.875H175.795L176.831 129.097H176.265L176.058 128.622ZM175.891 128.231L175.524 127.38L175.158 128.231H175.891Z" fill="#263238"/>
<path d="M177.07 126.875H178.121C178.284 126.856 178.45 126.871 178.606 126.919C178.763 126.966 178.907 127.045 179.03 127.15C179.153 127.255 179.251 127.384 179.318 127.528C179.385 127.672 179.42 127.828 179.42 127.986C179.42 128.144 179.385 128.3 179.318 128.444C179.251 128.588 179.153 128.717 179.03 128.822C178.907 128.927 178.763 129.006 178.606 129.053C178.45 129.1 178.284 129.115 178.121 129.097H177.07V126.875ZM178.097 128.675C178.287 128.675 178.47 128.603 178.604 128.473C178.739 128.344 178.814 128.169 178.814 127.986C178.814 127.803 178.739 127.628 178.604 127.498C178.47 127.369 178.287 127.296 178.097 127.296H177.611V128.675H178.097Z" fill="#263238"/>
<path d="M179.81 126.875H180.862C181.025 126.856 181.19 126.871 181.347 126.919C181.503 126.966 181.648 127.045 181.77 127.15C181.893 127.255 181.991 127.384 182.059 127.528C182.126 127.672 182.161 127.828 182.161 127.986C182.161 128.144 182.126 128.3 182.059 128.444C181.991 128.588 181.893 128.717 181.77 128.822C181.648 128.927 181.503 129.006 181.347 129.053C181.19 129.1 181.025 129.115 180.862 129.097H179.81V126.875ZM180.83 128.675C181.02 128.675 181.202 128.603 181.337 128.473C181.471 128.344 181.547 128.169 181.547 127.986C181.547 127.803 181.471 127.628 181.337 127.498C181.202 127.369 181.02 127.296 180.83 127.296H180.344V128.675H180.83Z" fill="#263238"/>
<path d="M185.586 129.089V127.756L184.9 128.852H184.661L183.984 127.787V129.089H183.482V126.867H183.921L184.789 128.246L185.641 126.867H186.079V129.089H185.586Z" fill="#263238"/>
<path d="M186.494 127.986C186.479 127.742 186.541 127.5 186.671 127.291C186.802 127.082 186.994 126.915 187.224 126.812C187.454 126.709 187.71 126.675 187.96 126.714C188.211 126.753 188.443 126.863 188.627 127.031C188.812 127.198 188.94 127.415 188.995 127.653C189.05 127.891 189.029 128.139 188.936 128.366C188.842 128.592 188.68 128.787 188.471 128.924C188.261 129.061 188.014 129.135 187.76 129.135C187.598 129.143 187.435 129.12 187.282 129.066C187.129 129.012 186.989 128.929 186.871 128.821C186.753 128.714 186.658 128.584 186.593 128.441C186.528 128.297 186.494 128.142 186.494 127.986ZM188.485 127.986C188.482 127.848 188.437 127.715 188.355 127.603C188.274 127.49 188.16 127.403 188.027 127.353C187.894 127.302 187.749 127.29 187.609 127.319C187.47 127.348 187.342 127.415 187.242 127.513C187.143 127.611 187.075 127.736 187.048 127.871C187.022 128.005 187.037 128.145 187.092 128.271C187.147 128.398 187.24 128.506 187.359 128.582C187.478 128.658 187.618 128.698 187.76 128.698C187.857 128.701 187.954 128.683 188.044 128.648C188.134 128.613 188.216 128.56 188.284 128.493C188.352 128.427 188.405 128.347 188.439 128.26C188.474 128.172 188.49 128.079 188.485 127.986V127.986Z" fill="#263238"/>
<path d="M190.915 129.089L190.469 128.469H189.975V129.089H189.441V126.867H190.437C191.058 126.867 191.441 127.174 191.441 127.633C191.442 127.782 191.398 127.928 191.315 128.053C191.231 128.178 191.112 128.277 190.971 128.338L191.488 129.051L190.915 129.089ZM190.413 127.281H189.975V128.047H190.413C190.74 128.047 190.899 127.902 190.899 127.656C190.899 127.411 190.74 127.289 190.413 127.289V127.281Z" fill="#263238"/>
<path d="M193.663 128.683V129.089H191.871V126.867H193.623V127.281H192.405V127.764H193.48V128.162H192.405V128.675L193.663 128.683Z" fill="#263238"/>
<path d="M195.535 128.177H194.954V128.721H194.508V128.177H193.934V127.794H194.508V127.25H194.93V127.794H195.511L195.535 128.177Z" fill="#263238"/>
<path d="M87.0912 110.876C87.1257 110.328 87.3269 109.802 87.6698 109.363C88.0127 108.925 88.4822 108.593 89.0197 108.409C89.5572 108.226 90.1391 108.198 90.6928 108.33C91.2465 108.462 91.7477 108.748 92.1338 109.151L91.3372 109.849C91.1785 109.659 90.9769 109.507 90.7478 109.403C90.5186 109.299 90.2679 109.247 90.0148 109.251C89.5669 109.251 89.1373 109.422 88.8206 109.727C88.5039 110.032 88.326 110.445 88.326 110.876C88.326 111.306 88.5039 111.72 88.8206 112.024C89.1373 112.329 89.5669 112.5 90.0148 112.5C90.2679 112.504 90.5186 112.452 90.7478 112.348C90.9769 112.245 91.1785 112.092 91.3372 111.902L92.1338 112.6C91.7477 113.003 91.2465 113.289 90.6928 113.421C90.1391 113.553 89.5572 113.525 89.0197 113.342C88.4822 113.158 88.0127 112.826 87.6698 112.388C87.3269 111.949 87.1257 111.423 87.0912 110.876Z" fill="#263238"/>
<path d="M96.4276 111.19V113.419H95.3283V112.929C95.1934 113.119 95.0072 113.271 94.7896 113.366C94.572 113.462 94.3313 113.499 94.0935 113.473C93.1376 113.473 92.572 112.967 92.572 112.293C92.572 111.619 93.0818 111.121 94.3166 111.121H95.2566C95.2566 110.638 94.9538 110.355 94.3166 110.355C93.8963 110.352 93.4861 110.478 93.1455 110.715L92.7233 109.948C93.2455 109.626 93.8556 109.461 94.4759 109.473C95.7266 109.45 96.4276 110.01 96.4276 111.19ZM95.2566 112.186V111.787H94.46C93.9103 111.787 93.735 111.979 93.735 112.239C93.735 112.5 93.9899 112.715 94.4042 112.715C94.5857 112.722 94.7653 112.676 94.918 112.581C95.0707 112.486 95.189 112.348 95.2566 112.186V112.186Z" fill="#263238"/>
<path d="M100.012 109.45V110.5H99.7495C99.5997 110.487 99.4489 110.507 99.3081 110.558C99.1674 110.609 99.0403 110.69 98.9363 110.794C98.8323 110.898 98.754 111.024 98.7073 111.162C98.6605 111.299 98.6464 111.445 98.6661 111.588V113.435H97.4951V109.527H98.6183V110.04C98.7833 109.84 98.9965 109.682 99.2395 109.579C99.4824 109.477 99.7477 109.432 100.012 109.45V109.45Z" fill="#263238"/>
<path d="M104.808 108.033V113.396H103.693V112.998C103.536 113.17 103.341 113.306 103.121 113.393C102.901 113.481 102.664 113.519 102.426 113.504C101.894 113.472 101.394 113.246 101.029 112.873C100.664 112.499 100.46 112.005 100.46 111.492C100.46 110.979 100.664 110.486 101.029 110.112C101.394 109.738 101.894 109.513 102.426 109.481C102.653 109.472 102.879 109.51 103.089 109.592C103.299 109.674 103.489 109.798 103.645 109.956V108.063L104.808 108.033ZM103.693 111.466C103.676 111.273 103.601 111.089 103.477 110.936C103.353 110.784 103.185 110.669 102.995 110.607C102.804 110.544 102.599 110.537 102.404 110.585C102.209 110.633 102.033 110.735 101.897 110.877C101.761 111.02 101.671 111.198 101.639 111.389C101.606 111.58 101.632 111.776 101.714 111.953C101.796 112.13 101.929 112.281 102.098 112.386C102.267 112.491 102.464 112.547 102.665 112.546C102.809 112.548 102.951 112.52 103.083 112.465C103.215 112.41 103.334 112.329 103.431 112.227C103.528 112.125 103.601 112.005 103.646 111.873C103.692 111.742 103.707 111.603 103.693 111.466Z" fill="#263238"/>
<path d="M105.501 113.059L105.891 112.239C106.319 112.489 106.809 112.621 107.309 112.623C107.851 112.623 108.05 112.485 108.05 112.262C108.05 111.626 105.597 112.262 105.597 110.73C105.597 109.964 106.298 109.466 107.477 109.466C108.029 109.453 108.576 109.572 109.07 109.81L108.68 110.615C108.322 110.423 107.918 110.323 107.509 110.324C106.983 110.324 106.76 110.485 106.76 110.692C106.76 111.358 109.205 110.692 109.205 112.224C109.205 112.952 108.504 113.465 107.294 113.465C106.669 113.486 106.05 113.346 105.501 113.059V113.059Z" fill="#263238"/>
<path d="M133.909 275.281H132.538V274.323H136.522V275.281H135.159V278.606H133.901L133.909 275.281Z" fill="#263238"/>
<path d="M136.705 276.461C136.671 275.982 136.788 275.505 137.04 275.091C137.293 274.677 137.669 274.346 138.119 274.14C138.57 273.934 139.075 273.864 139.567 273.938C140.06 274.012 140.519 274.226 140.883 274.554C141.247 274.882 141.5 275.308 141.61 275.776C141.719 276.244 141.679 276.733 141.496 277.179C141.313 277.625 140.994 278.008 140.581 278.277C140.169 278.547 139.681 278.691 139.182 278.691C138.865 278.709 138.548 278.666 138.249 278.562C137.95 278.459 137.676 278.298 137.444 278.089C137.212 277.88 137.027 277.628 136.9 277.348C136.773 277.068 136.706 276.766 136.705 276.461V276.461ZM140.385 276.461C140.371 276.235 140.289 276.019 140.149 275.838C140.008 275.657 139.816 275.519 139.595 275.442C139.374 275.365 139.135 275.352 138.907 275.404C138.678 275.456 138.471 275.571 138.31 275.736C138.149 275.9 138.041 276.106 138 276.328C137.959 276.551 137.987 276.78 138.079 276.987C138.172 277.194 138.326 277.371 138.522 277.496C138.718 277.62 138.948 277.686 139.182 277.687C139.347 277.688 139.51 277.657 139.661 277.595C139.813 277.533 139.949 277.441 140.062 277.326C140.175 277.211 140.262 277.075 140.318 276.926C140.373 276.777 140.396 276.619 140.385 276.461V276.461Z" fill="#263238"/>
<path d="M143.205 275.281H141.835V274.323H145.818V275.281H144.456V278.606H143.205V275.281Z" fill="#263238"/>
<path d="M149.1 277.779H147.212L146.862 278.606H145.579L147.547 274.323H148.79L150.757 278.606H149.451L149.1 277.779ZM148.726 276.882L148.152 275.511L147.579 276.882H148.726Z" fill="#263238"/>
<path d="M151.076 274.323H152.335V277.648H154.461V278.606H151.076V274.323Z" fill="#263238"/>
<path d="M123.688 295.096V296.421H123.091V295.111C122.033 295.094 121.015 294.72 120.215 294.054L120.565 293.395C121.267 293.986 122.158 294.329 123.091 294.368V291.303C121.768 290.989 120.422 290.598 120.422 289.073C120.422 287.962 121.218 287.004 123.091 286.866V285.533H123.688V286.851C124.553 286.874 125.396 287.123 126.126 287.571L125.823 288.253C125.183 287.856 124.448 287.623 123.688 287.579V290.644C125.042 290.95 126.476 291.318 126.476 292.874C126.476 294.023 125.6 294.989 123.688 295.096ZM123.091 290.498V287.61C121.848 287.717 121.298 288.33 121.298 289.058C121.298 289.954 122.103 290.276 123.091 290.521V290.498ZM125.6 292.927C125.6 292.008 124.724 291.701 123.688 291.456V294.345C125.01 294.276 125.6 293.686 125.6 292.95V292.927Z" fill="#263238"/>
<path d="M133.168 286.935V295.019H132.299V287.702H130.316V286.935H133.168Z" fill="#263238"/>
<path d="M141.596 292.789C141.596 294.215 140.337 295.088 138.33 295.088C136.322 295.088 135.088 294.192 135.088 292.789C135.082 292.334 135.236 291.889 135.525 291.528C135.814 291.166 136.221 290.909 136.681 290.797C136.29 290.678 135.951 290.441 135.712 290.12C135.474 289.8 135.35 289.413 135.359 289.02C135.359 287.702 136.522 286.882 138.298 286.882C140.075 286.882 141.269 287.702 141.269 289.02C141.275 289.416 141.147 289.804 140.905 290.124C140.662 290.445 140.317 290.681 139.923 290.797C140.397 290.895 140.821 291.147 141.125 291.509C141.43 291.872 141.596 292.323 141.596 292.789V292.789ZM140.712 292.789C140.712 291.793 139.82 291.173 138.322 291.173C136.824 291.173 135.932 291.793 135.932 292.789C135.932 293.786 136.808 294.422 138.322 294.422C139.836 294.422 140.712 293.778 140.712 292.774V292.789ZM138.322 290.491C139.636 290.491 140.417 289.924 140.417 289.043C140.417 288.161 139.62 287.579 138.322 287.579C137.023 287.579 136.243 288.131 136.243 289.035C136.243 289.939 137.023 290.498 138.33 290.498L138.322 290.491Z" fill="#263238"/>
<path d="M142.799 290.996C142.799 288.422 144.201 286.882 146.145 286.882C148.089 286.882 149.507 288.414 149.507 290.996C149.507 293.579 148.089 295.111 146.145 295.111C144.201 295.111 142.799 293.571 142.799 290.996ZM148.622 290.996C148.622 288.836 147.611 287.648 146.145 287.648C144.679 287.648 143.675 288.836 143.675 290.996C143.675 293.157 144.679 294.345 146.145 294.345C147.611 294.345 148.622 293.157 148.622 290.996Z" fill="#263238"/>
<path d="M151.904 294.46C151.892 294.692 151.835 294.921 151.737 295.134L151.235 296.728H150.694L151.1 295.05C150.97 295.012 150.856 294.934 150.778 294.827C150.7 294.719 150.662 294.59 150.67 294.46C150.666 294.379 150.68 294.298 150.711 294.222C150.741 294.147 150.787 294.078 150.846 294.019C150.905 293.961 150.975 293.915 151.053 293.884C151.131 293.853 151.215 293.838 151.299 293.839C151.464 293.845 151.621 293.914 151.734 294.03C151.848 294.146 151.909 294.301 151.904 294.46V294.46Z" fill="#263238"/>
<path d="M159.018 294.299V295.065H153.083V294.483L156.581 291.188C157.529 290.284 157.712 289.74 157.712 289.188C157.712 288.253 157.027 287.656 155.744 287.656C155.316 287.629 154.887 287.696 154.49 287.851C154.093 288.006 153.737 288.246 153.45 288.552L152.836 288.046C153.213 287.653 153.676 287.346 154.191 287.146C154.706 286.946 155.261 286.858 155.816 286.889C157.521 286.889 158.596 287.725 158.596 289.073C158.596 289.839 158.349 290.537 157.218 291.602L154.358 294.307L159.018 294.299Z" fill="#263238"/>
<path d="M160.046 290.996C160.046 288.422 161.448 286.882 163.392 286.882C165.335 286.882 166.761 288.414 166.761 290.996C166.761 293.579 165.343 295.111 163.392 295.111C161.44 295.111 160.046 293.571 160.046 290.996ZM165.869 290.996C165.869 288.836 164.857 287.648 163.392 287.648C161.926 287.648 160.922 288.836 160.922 290.996C160.922 293.157 161.934 294.345 163.392 294.345C164.849 294.345 165.869 293.157 165.869 290.996Z" fill="#263238"/>
<path d="M188.533 307.44H106.847C99.6848 307.44 93.8784 313.025 93.8784 319.914V322.136C93.8784 329.026 99.6848 334.611 106.847 334.611H188.533C195.696 334.611 201.502 329.026 201.502 322.136V319.914C201.502 313.025 195.696 307.44 188.533 307.44Z" fill="#EA6106"/>
<g opacity="0.3">
<path opacity="0.3" d="M188.533 307.44H106.847C99.6848 307.44 93.8784 313.025 93.8784 319.914V322.136C93.8784 329.026 99.6848 334.611 106.847 334.611H188.533C195.696 334.611 201.502 329.026 201.502 322.136V319.914C201.502 313.025 195.696 307.44 188.533 307.44Z" fill="black"/>
</g>
<path d="M184.351 307.44H102.665C95.5026 307.44 89.6962 313.025 89.6962 319.914V322.136C89.6962 329.026 95.5026 334.611 102.665 334.611H184.351C191.513 334.611 197.32 329.026 197.32 322.136V319.914C197.32 313.025 191.513 307.44 184.351 307.44Z" fill="#EA6106"/>
<path d="M140.274 319.531C140.274 320.926 139.23 321.769 137.493 321.769H135.836V323.715H134.888V317.294H137.493C139.23 317.294 140.274 318.137 140.274 319.531ZM139.326 319.531C139.326 318.612 138.68 318.091 137.462 318.091H135.868V320.972H137.462C138.68 320.972 139.326 320.451 139.326 319.531Z" fill="white"/>
<path d="M145.603 322.114H142.05L141.317 323.715H140.337L143.365 317.294H144.321L147.356 323.715H146.352L145.603 322.114ZM145.268 321.347L143.827 318.198L142.385 321.416L145.268 321.347Z" fill="white"/>
<path d="M150.486 321.493V323.715H149.538V321.478L146.886 317.294H147.905L150.048 320.681L152.191 317.294H153.139L150.486 321.493Z" fill="white"/>
<path d="M158.596 263.304C159.1 263.27 159.599 263.188 160.086 263.059C161.463 262.632 162.608 261.698 163.272 260.462C163.495 260.037 163.658 259.586 163.758 259.121C163.841 258.601 163.87 258.075 163.846 257.55C163.846 256.441 163.846 255.238 163.846 253.941C163.846 251.343 163.846 248.393 163.782 245.137C163.718 241.88 163.742 238.302 163.718 234.463C163.718 233.505 163.718 232.532 163.718 231.536C163.764 230.555 163.518 229.582 163.009 228.731C162.489 227.857 161.706 227.155 160.763 226.716C159.764 226.285 158.666 226.113 157.576 226.218L128.396 226.325C127.145 226.333 125.939 226.77 124.994 227.559C124.062 228.336 123.451 229.411 123.274 230.586C123.204 231.176 123.183 231.77 123.21 232.363V234.156C123.21 235.352 123.21 236.539 123.21 237.712C123.21 242.401 123.21 246.907 123.21 251.251C123.21 253.404 123.21 255.512 123.21 257.55C123.131 258.533 123.315 259.52 123.744 260.416C124.175 261.271 124.852 261.989 125.696 262.484C127.352 263.557 129.392 263.174 131.224 263.251H136.545H152.613H156.979H158.118H158.5H158.118H156.979L152.613 263.304L136.545 263.419H131.224H128.388C127.375 263.42 126.381 263.155 125.512 262.653C124.61 262.126 123.886 261.36 123.425 260.446C122.966 259.507 122.766 258.47 122.844 257.435C122.844 255.397 122.844 253.29 122.844 251.136C122.844 246.822 122.804 242.294 122.788 237.597C122.788 236.425 122.788 235.237 122.788 234.042C122.788 233.452 122.788 232.846 122.788 232.249C122.766 231.635 122.787 231.02 122.852 230.41C123.048 229.142 123.709 227.984 124.716 227.145C125.735 226.294 127.038 225.821 128.388 225.812L157.56 225.735C158.698 225.634 159.844 225.822 160.882 226.279C161.886 226.753 162.719 227.506 163.272 228.44C163.807 229.347 164.064 230.38 164.013 231.421C164.013 232.409 164.013 233.39 164.013 234.348C164.013 238.179 164.013 241.758 164.013 245.022V253.826C164.013 255.121 164.013 256.324 164.013 257.435C164.033 257.974 163.996 258.513 163.901 259.044C163.787 259.52 163.613 259.98 163.384 260.416C163.037 261.044 162.562 261.599 161.987 262.046C161.412 262.494 160.749 262.825 160.038 263.021C159.671 263.117 159.294 263.174 158.915 263.189L158.596 263.304Z" fill="#EA6106"/>
<path d="M150.375 250.301H150.104H149.307L146.384 250.34L136.545 250.424H136.466V250.347C136.386 249.849 136.306 249.32 136.227 248.815C135.542 244.217 134.936 240.141 134.538 237.467L134.602 237.513H131.973H131.28C131.198 237.524 131.115 237.524 131.033 237.513H131.28H131.973L134.594 237.467H134.642V237.52C135.056 240.187 135.685 244.279 136.394 248.861C136.474 249.397 136.553 249.926 136.633 250.393L136.538 250.317H146.368H150.096L150.375 250.301Z" fill="#EA6106"/>
<path d="M136.131 247.627H136.402H137.199L140.162 247.581L150.367 247.497L150.279 247.566C150.574 245.911 150.885 244.125 151.211 242.271C151.387 241.321 151.546 240.386 151.705 239.497L151.801 239.597L139.772 239.635H135.239H136.203L139.764 239.589L151.793 239.49H151.896V239.589C151.737 240.486 151.578 241.42 151.402 242.371C151.076 244.225 150.757 246.01 150.462 247.665V247.734H150.391H140.186H136.203L136.131 247.627Z" fill="#EA6106"/>
<path d="M140.027 253.987C140.027 253.987 140.027 253.872 139.947 253.673C139.856 253.397 139.678 253.156 139.437 252.983C139.287 252.877 139.114 252.803 138.931 252.766C138.748 252.729 138.559 252.731 138.377 252.77C138.194 252.81 138.023 252.887 137.874 252.995C137.725 253.104 137.602 253.242 137.514 253.4C137.425 253.559 137.373 253.733 137.361 253.913C137.348 254.092 137.376 254.272 137.442 254.44C137.508 254.608 137.611 254.761 137.743 254.888C137.876 255.014 138.035 255.112 138.21 255.175C138.416 255.244 138.635 255.264 138.85 255.233C139.066 255.203 139.27 255.122 139.445 254.998C139.687 254.828 139.863 254.585 139.947 254.309C140.011 254.109 140.011 253.987 140.027 253.987C140.054 254.098 140.054 254.213 140.027 254.324C139.962 254.628 139.787 254.899 139.533 255.09C139.343 255.237 139.118 255.335 138.879 255.376C138.639 255.416 138.393 255.397 138.163 255.32C137.871 255.226 137.617 255.048 137.436 254.809C137.254 254.57 137.155 254.283 137.151 253.987C137.15 253.696 137.243 253.413 137.417 253.175C137.591 252.938 137.838 252.758 138.123 252.661C138.313 252.592 138.516 252.562 138.718 252.575C138.921 252.588 139.118 252.643 139.297 252.736C139.475 252.83 139.631 252.959 139.753 253.115C139.875 253.271 139.96 253.451 140.003 253.642C140.041 253.753 140.05 253.872 140.027 253.987V253.987Z" fill="#EA6106"/>
<path d="M148.925 253.926C148.925 253.926 148.925 253.803 148.845 253.604C148.756 253.329 148.577 253.09 148.335 252.922C148.158 252.799 147.952 252.72 147.735 252.692C147.518 252.664 147.298 252.687 147.093 252.761C146.846 252.853 146.634 253.016 146.485 253.226C146.335 253.437 146.256 253.686 146.256 253.941C146.258 254.195 146.341 254.443 146.493 254.651C146.645 254.86 146.86 255.018 147.109 255.105C147.313 255.178 147.533 255.2 147.748 255.171C147.964 255.142 148.168 255.061 148.343 254.937C148.583 254.76 148.761 254.517 148.853 254.24C148.909 254.04 148.909 253.926 148.925 253.926C148.953 254.034 148.953 254.147 148.925 254.255C148.86 254.559 148.685 254.83 148.431 255.021C148.217 255.193 147.956 255.301 147.68 255.334C147.403 255.368 147.123 255.324 146.872 255.209C146.62 255.094 146.408 254.911 146.261 254.684C146.114 254.457 146.038 254.193 146.041 253.926C146.041 253.634 146.134 253.35 146.308 253.111C146.482 252.873 146.728 252.691 147.013 252.592C147.243 252.512 147.49 252.49 147.731 252.527C147.972 252.565 148.2 252.661 148.391 252.807C148.646 252.998 148.824 253.269 148.893 253.573C148.934 253.686 148.945 253.807 148.925 253.926V253.926Z" fill="#EA6106"/>
<path d="M154.971 238.118C154.982 238.878 154.758 239.624 154.327 240.261C153.896 240.898 153.278 241.397 152.552 241.696C151.825 241.994 151.022 242.077 150.246 241.936C149.47 241.794 148.755 241.433 148.192 240.9C147.629 240.366 147.244 239.684 147.086 238.939C146.928 238.194 147.004 237.421 147.303 236.718C147.603 236.015 148.113 235.413 148.77 234.99C149.426 234.567 150.198 234.34 150.988 234.34C152.035 234.34 153.04 234.737 153.785 235.444C154.531 236.15 154.957 237.111 154.971 238.118V238.118Z" fill="#EA6106"/>
<path d="M151.49 236.677V239.558H150.797V237.214H150.2V236.677H151.49Z" fill="white"/>
<path d="M196.364 138.859H90.6601C88.7682 138.859 87.2346 140.334 87.2346 142.154V204.25C87.2346 206.07 88.7682 207.545 90.6601 207.545H196.364C198.256 207.545 199.789 206.07 199.789 204.25V142.154C199.789 140.334 198.256 138.859 196.364 138.859Z" fill="#EA6106"/>
<path d="M105.764 154.551C105.764 155.433 105.039 155.938 103.653 155.938H100.921V150.858H103.502C104.824 150.858 105.501 151.387 105.501 152.176C105.507 152.407 105.444 152.635 105.32 152.833C105.196 153.032 105.015 153.192 104.8 153.295C105.085 153.369 105.335 153.533 105.51 153.762C105.685 153.99 105.774 154.268 105.764 154.551V154.551ZM102.139 151.739V152.942H103.35C103.948 152.942 104.274 152.735 104.274 152.337C104.274 151.939 103.948 151.739 103.35 151.739H102.139ZM104.529 154.429C104.529 154 104.187 153.793 103.557 153.793H102.131V155.05H103.557C104.195 155.05 104.537 154.866 104.537 154.429H104.529Z" fill="white"/>
<path d="M110.169 154.85H107.716L107.246 155.938H105.995L108.385 150.858H109.588L111.978 155.938H110.695L110.169 154.85ZM109.787 153.954L108.951 152.008L108.154 153.954H109.787Z" fill="white"/>
<path d="M117.315 150.858V155.908H116.311L113.674 152.843V155.908H112.456V150.827H113.467L116.088 153.892V150.827L117.315 150.858Z" fill="white"/>
<path d="M120.486 153.938L119.777 154.651V155.908H118.566V150.827H119.777V153.195L122.119 150.827H123.473L121.29 153.126L123.608 155.908H122.174L120.486 153.938Z" fill="white"/>
<path d="M104.776 175.684H103.804V176.91H103.31V175.684H100.57V175.34L103.143 172.275H103.701L101.215 175.286H103.326V174.206H103.804V175.286H104.776V175.684Z" fill="white"/>
<path d="M108.337 175.569C108.337 176.336 107.748 176.949 106.577 176.949C105.937 176.971 105.313 176.757 104.832 176.351L105.079 175.968C105.485 176.331 106.022 176.527 106.577 176.512C107.373 176.512 107.827 176.152 107.827 175.569C107.827 174.987 107.413 174.642 106.513 174.642H106.17V174.298L107.517 172.681H105.031V172.252H108.154V172.596L106.784 174.252C107.819 174.298 108.337 174.826 108.337 175.569Z" fill="white"/>
<path d="M112.264 175.539C112.264 176.305 111.683 176.949 110.504 176.949C109.864 176.971 109.24 176.757 108.759 176.351L109.006 175.968C109.408 176.332 109.944 176.527 110.496 176.512C111.293 176.512 111.755 176.121 111.755 175.554C111.755 174.987 111.364 174.581 110.161 174.581H109.134L109.381 172.244H112.033V172.673H109.819L109.652 174.16H110.273C111.707 174.16 112.264 174.711 112.264 175.539Z" fill="white"/>
<path d="M116.534 175.516C116.532 175.717 116.486 175.916 116.4 176.1C116.314 176.283 116.189 176.447 116.033 176.582C115.877 176.717 115.694 176.819 115.495 176.882C115.296 176.945 115.086 176.968 114.877 176.949C113.587 176.949 112.894 176.091 112.894 174.65C112.894 173.209 113.794 172.236 115.108 172.236C115.507 172.221 115.903 172.308 116.256 172.489L116.056 172.872C115.77 172.717 115.444 172.643 115.116 172.658C114.065 172.658 113.396 173.301 113.396 174.566C113.389 174.693 113.389 174.821 113.396 174.949C113.539 174.696 113.755 174.49 114.018 174.353C114.281 174.217 114.58 174.158 114.877 174.183C115.079 174.157 115.283 174.172 115.479 174.226C115.674 174.281 115.855 174.373 116.011 174.499C116.166 174.624 116.293 174.779 116.384 174.954C116.474 175.129 116.525 175.321 116.534 175.516V175.516ZM116.04 175.516C116.04 174.903 115.57 174.512 114.822 174.512C114.669 174.495 114.515 174.508 114.369 174.551C114.222 174.594 114.086 174.666 113.97 174.761C113.853 174.857 113.758 174.975 113.691 175.107C113.624 175.24 113.586 175.384 113.579 175.531C113.579 176.045 114.017 176.527 114.853 176.527C115.001 176.545 115.151 176.532 115.292 176.49C115.434 176.448 115.566 176.377 115.678 176.284C115.79 176.19 115.88 176.074 115.942 175.944C116.005 175.815 116.038 175.674 116.04 175.531V175.516Z" fill="white"/>
<path d="M127.018 176.91L125.855 175.447L124.692 176.91H124.142L125.584 175.11L124.206 173.409H124.763L125.855 174.78L126.954 173.409H127.496L126.118 175.11L127.576 176.91H127.018Z" fill="white"/>
<path d="M130.714 176.91L129.559 175.447L128.388 176.91H127.83L129.272 175.11L127.902 173.409H128.46L129.551 174.78L130.643 173.409H131.184L129.814 175.11L131.272 176.91H130.714Z" fill="white"/>
<path d="M134.419 176.91L133.255 175.447L132.092 176.91H131.575L133.016 175.11L131.575 173.409H132.132L133.224 174.78L134.323 173.409H134.865L133.486 175.11L134.944 176.91H134.419Z" fill="white"/>
<path d="M138.115 176.91L136.96 175.447L135.797 176.91H135.239L136.681 175.11L135.311 173.409H135.86L136.96 174.78L138.051 173.409H138.593L137.223 175.11L138.672 176.91H138.115Z" fill="white"/>
<path d="M150.893 176.91L149.73 175.447L148.566 176.91H148.017L149.459 175.11L148.081 173.409H148.638L149.73 174.78L150.829 173.409H151.371L149.992 175.11L151.45 176.91H150.893Z" fill="white"/>
<path d="M154.589 176.91L153.434 175.447L152.287 176.91H151.729L153.171 175.11L151.801 173.409H152.35L153.45 174.78L154.541 173.409H155.083L153.713 175.11L155.163 176.91H154.589Z" fill="white"/>
<path d="M158.285 176.91L157.13 175.447L155.967 176.91H155.409L156.851 175.11L155.473 173.409H156.031L157.122 174.78L158.222 173.409H158.755L157.385 175.11L158.843 176.91H158.285Z" fill="white"/>
<path d="M161.99 176.91L160.834 175.447L159.663 176.91H159.114L160.556 175.11L159.177 173.409H159.735L160.834 174.78L161.926 173.409H162.468L161.097 175.11L162.547 176.91H161.99Z" fill="white"/>
<path d="M173.461 172.244V176.91H172.999V172.673H171.86V172.244H173.461Z" fill="white"/>
<path d="M177.826 175.569C177.826 176.336 177.237 176.949 176.066 176.949C175.426 176.971 174.802 176.757 174.321 176.351L174.56 175.968C174.969 176.332 175.509 176.527 176.066 176.512C176.863 176.512 177.309 176.152 177.309 175.569C177.309 174.987 176.902 174.642 176.002 174.642H175.66V174.298L176.998 172.681H174.52V172.252H177.635V172.596L176.265 174.252C177.309 174.298 177.826 174.826 177.826 175.569Z" fill="white"/>
<path d="M182.646 175.684H181.674V176.91H181.18V175.684H178.44V175.34L181.013 172.275H181.563L179.085 175.286H181.188V174.206H181.674V175.286H182.646V175.684Z" fill="white"/>
<path d="M186.39 176.481V176.91H182.989V176.596L185.004 174.696C185.554 174.175 185.657 173.861 185.657 173.539C185.657 173.003 185.259 172.665 184.518 172.665C184.271 172.651 184.024 172.691 183.795 172.781C183.566 172.871 183.361 173.01 183.196 173.187L182.837 172.895C183.055 172.669 183.322 172.492 183.62 172.377C183.917 172.261 184.238 172.211 184.558 172.229C185.546 172.229 186.151 172.711 186.151 173.485C186.141 173.771 186.064 174.051 185.926 174.304C185.788 174.558 185.593 174.778 185.355 174.949L183.705 176.481H186.39Z" fill="white"/>
<path d="M98.1164 186.596C98.1266 186.354 98.2115 186.12 98.3603 185.925C98.5092 185.73 98.7151 185.581 98.9519 185.499C99.1887 185.417 99.4457 185.404 99.6899 185.463C99.9341 185.522 100.155 185.65 100.323 185.829L99.9805 186.136C99.9109 186.053 99.8222 185.986 99.7214 185.94C99.6205 185.895 99.5102 185.873 99.399 185.875C99.2025 185.875 99.0141 185.951 98.8751 186.084C98.7362 186.218 98.6581 186.399 98.6581 186.588C98.6581 186.777 98.7362 186.958 98.8751 187.092C99.0141 187.226 99.2025 187.301 99.399 187.301C99.5108 187.302 99.6213 187.278 99.7221 187.231C99.8229 187.185 99.9113 187.117 99.9805 187.032L100.323 187.339C100.207 187.472 100.06 187.577 99.8937 187.646C99.7279 187.715 99.5476 187.746 99.3671 187.737C99.206 187.746 99.0448 187.722 98.8933 187.669C98.7419 187.615 98.6034 187.532 98.4863 187.426C98.3693 187.319 98.2761 187.19 98.2125 187.047C98.1489 186.905 98.1162 186.751 98.1164 186.596Z" fill="white"/>
<path d="M102.1 187.232H101.024L100.817 187.707H100.267L101.303 185.477H101.829L102.864 187.707H102.299L102.1 187.232ZM101.924 186.841L101.558 185.983L101.191 186.841H101.924Z" fill="white"/>
<path d="M104.617 187.707L104.171 187.086H103.693V187.707H103.159V185.477H104.155C104.776 185.477 105.167 185.791 105.167 186.289C105.167 186.439 105.122 186.585 105.037 186.711C104.952 186.836 104.831 186.934 104.689 186.994L105.206 187.707H104.617ZM104.115 185.898H103.693V186.665H104.131C104.458 186.665 104.625 186.519 104.625 186.282C104.625 186.044 104.442 185.898 104.115 185.898Z" fill="white"/>
<path d="M105.39 187.485L105.573 187.101C105.807 187.256 106.085 187.336 106.369 187.331C106.688 187.331 106.816 187.232 106.816 187.094C106.816 186.672 105.469 186.963 105.469 186.136C105.469 185.753 105.788 185.439 106.449 185.439C106.729 185.433 107.004 185.502 107.246 185.638L107.086 186.029C106.89 185.918 106.668 185.858 106.441 185.852C106.122 185.852 106.003 185.967 106.003 186.113C106.003 186.519 107.349 186.236 107.349 187.055C107.349 187.423 107.031 187.745 106.369 187.745C106.023 187.758 105.68 187.667 105.39 187.485Z" fill="white"/>
<path d="M110.743 185.477V187.707H110.209V186.795H109.158V187.707H108.624V185.477H109.158V186.358H110.209V185.477H110.743Z" fill="white"/>
<path d="M111.157 186.596C111.143 186.352 111.205 186.11 111.335 185.901C111.465 185.692 111.658 185.525 111.887 185.422C112.117 185.319 112.374 185.285 112.624 185.324C112.874 185.363 113.107 185.473 113.291 185.641C113.475 185.808 113.603 186.025 113.658 186.263C113.713 186.501 113.693 186.749 113.599 186.976C113.506 187.202 113.344 187.397 113.134 187.534C112.925 187.671 112.677 187.745 112.424 187.745C112.261 187.754 112.098 187.732 111.944 187.678C111.791 187.625 111.651 187.541 111.532 187.434C111.413 187.326 111.319 187.196 111.254 187.052C111.19 186.908 111.157 186.753 111.157 186.596ZM113.141 186.596C113.138 186.458 113.092 186.325 113.01 186.212C112.928 186.099 112.814 186.012 112.68 185.962C112.547 185.912 112.402 185.9 112.262 185.93C112.122 185.959 111.995 186.027 111.895 186.126C111.796 186.225 111.729 186.35 111.703 186.485C111.677 186.621 111.694 186.76 111.75 186.887C111.807 187.013 111.901 187.12 112.021 187.195C112.14 187.271 112.281 187.31 112.424 187.308C112.521 187.311 112.617 187.294 112.707 187.258C112.796 187.223 112.877 187.17 112.945 187.103C113.012 187.036 113.064 186.957 113.098 186.869C113.132 186.782 113.146 186.689 113.141 186.596Z" fill="white"/>
<path d="M114.097 185.477H114.63V187.324H115.794V187.745H114.097V185.477Z" fill="white"/>
<path d="M116.096 185.477H117.148C117.308 185.464 117.469 185.484 117.621 185.534C117.774 185.584 117.913 185.664 118.032 185.769C118.15 185.874 118.244 186.001 118.309 186.143C118.374 186.284 118.407 186.437 118.407 186.592C118.407 186.747 118.374 186.9 118.309 187.041C118.244 187.183 118.15 187.31 118.032 187.415C117.913 187.52 117.774 187.6 117.621 187.65C117.469 187.7 117.308 187.72 117.148 187.707H116.096V185.477ZM117.116 187.285C117.306 187.285 117.488 187.213 117.623 187.083C117.757 186.954 117.833 186.779 117.833 186.596C117.833 186.413 117.757 186.237 117.623 186.108C117.488 185.979 117.306 185.906 117.116 185.906H116.63V187.324L117.116 187.285Z" fill="white"/>
<path d="M120.621 187.324V187.737H118.829V185.508H120.581V185.921H119.362V186.404H120.422V186.81H119.346V187.324H120.621Z" fill="white"/>
<path d="M122.525 187.707L122.079 187.086H121.585V187.707H121.051V185.477H122.055C122.668 185.477 123.059 185.791 123.059 186.289C123.059 186.439 123.014 186.585 122.929 186.711C122.844 186.836 122.723 186.934 122.581 186.994L123.099 187.707H122.525ZM122.023 185.898H121.585V186.665H122.015C122.342 186.665 122.509 186.519 122.509 186.282C122.509 186.044 122.35 185.898 122.015 185.898H122.023Z" fill="white"/>
<path d="M97.8456 195.293L98.4192 194.634C98.5032 194.767 98.6194 194.88 98.7581 194.961C98.8967 195.042 99.0537 195.09 99.2158 195.101C99.63 195.101 99.8451 194.864 99.8451 194.396V192.35H98.2519V191.584H100.841V194.366C100.874 194.577 100.857 194.792 100.789 194.995C100.722 195.199 100.607 195.384 100.452 195.538C100.298 195.691 100.109 195.809 99.9003 195.88C99.6914 195.952 99.468 195.976 99.2476 195.952C98.9774 195.951 98.7109 195.891 98.4681 195.777C98.2254 195.663 98.0125 195.497 97.8456 195.293V195.293Z" fill="white"/>
<path d="M101.566 195.293C101.564 195.215 101.578 195.137 101.608 195.064C101.638 194.992 101.683 194.926 101.741 194.871C101.798 194.815 101.867 194.772 101.942 194.743C102.017 194.714 102.098 194.7 102.179 194.703C102.261 194.699 102.343 194.712 102.419 194.741C102.495 194.769 102.565 194.812 102.623 194.868C102.681 194.923 102.727 194.989 102.758 195.062C102.788 195.136 102.803 195.214 102.801 195.293C102.803 195.372 102.788 195.45 102.758 195.524C102.727 195.597 102.682 195.664 102.623 195.72C102.565 195.776 102.496 195.82 102.42 195.849C102.343 195.878 102.261 195.892 102.179 195.89C102.097 195.892 102.016 195.878 101.94 195.849C101.864 195.82 101.795 195.776 101.738 195.719C101.68 195.663 101.635 195.597 101.606 195.523C101.576 195.45 101.563 195.371 101.566 195.293V195.293Z" fill="white"/>
<path d="M110.066 191.553L108.608 195.844H107.493L106.513 192.94L105.501 195.844H104.402L102.936 191.553H104.003L105.015 194.572L106.067 191.553H107.015L108.034 194.618L109.078 191.553H110.066Z" fill="white"/>
<path d="M110.48 191.553C110.497 191.407 110.57 191.273 110.684 191.175C110.797 191.077 110.945 191.023 111.097 191.023C111.25 191.023 111.397 191.077 111.511 191.175C111.625 191.273 111.698 191.407 111.715 191.553C111.698 191.699 111.625 191.834 111.511 191.932C111.397 192.029 111.25 192.083 111.097 192.083C110.945 192.083 110.797 192.029 110.684 191.932C110.57 191.834 110.497 191.699 110.48 191.553V191.553ZM110.6 192.549H111.595V195.844H110.6V192.549Z" fill="white"/>
<path d="M112.519 191.3H113.507V195.844H112.519V191.3Z" fill="white"/>
<path d="M114.431 191.3H115.427V195.844H114.431V191.3Z" fill="white"/>
<path d="M116.224 191.553C116.226 191.478 116.243 191.405 116.276 191.337C116.309 191.269 116.356 191.208 116.414 191.159C116.473 191.109 116.541 191.071 116.615 191.048C116.689 191.025 116.768 191.017 116.845 191.025C116.921 191.017 116.997 191.025 117.07 191.047C117.143 191.069 117.21 191.106 117.267 191.154C117.325 191.202 117.371 191.261 117.404 191.327C117.437 191.393 117.456 191.465 117.458 191.538C117.441 191.684 117.369 191.819 117.255 191.916C117.141 192.014 116.994 192.068 116.841 192.068C116.688 192.068 116.541 192.014 116.427 191.916C116.313 191.819 116.241 191.684 116.224 191.538V191.553ZM116.343 192.549H117.339V195.844H116.343V192.549Z" fill="white"/>
<path d="M121.29 193.967V195.844H120.366V195.431C120.252 195.591 120.094 195.718 119.911 195.799C119.727 195.88 119.523 195.912 119.323 195.89C118.526 195.89 118.04 195.461 118.04 194.894C118.04 194.327 118.462 193.906 119.506 193.906H120.302C120.302 193.5 120.047 193.262 119.506 193.262C119.153 193.257 118.808 193.365 118.526 193.569L118.167 192.894C118.608 192.626 119.12 192.487 119.641 192.496C120.685 192.496 121.29 192.963 121.29 193.967ZM120.302 194.802V194.465H119.625C119.163 194.465 119.012 194.634 119.012 194.856C119.012 195.078 119.227 195.254 119.577 195.254C119.732 195.26 119.885 195.22 120.015 195.139C120.144 195.058 120.245 194.94 120.302 194.802V194.802Z" fill="white"/>
<path d="M127.974 193.959V195.844H126.986V194.105C126.986 193.569 126.731 193.339 126.333 193.339C125.935 193.339 125.576 193.614 125.576 194.204V195.86H124.58V194.12C124.58 193.584 124.349 193.354 123.935 193.354C123.521 193.354 123.178 193.63 123.178 194.22V195.875H122.19V192.58H123.138V192.956C123.276 192.814 123.442 192.703 123.628 192.629C123.813 192.555 124.013 192.52 124.214 192.526C124.434 192.516 124.653 192.561 124.85 192.656C125.047 192.751 125.215 192.894 125.337 193.07C125.489 192.897 125.68 192.758 125.895 192.664C126.11 192.57 126.344 192.523 126.58 192.526C126.774 192.516 126.968 192.547 127.149 192.617C127.329 192.686 127.492 192.793 127.625 192.93C127.758 193.066 127.858 193.229 127.918 193.407C127.978 193.585 127.997 193.774 127.974 193.959V193.959Z" fill="white"/>
<path d="M128.531 195.538L128.866 194.856C129.226 195.058 129.636 195.167 130.053 195.17C130.515 195.17 130.682 195.055 130.682 194.871C130.682 194.335 128.611 194.871 128.611 193.569C128.611 192.94 129.201 192.496 130.204 192.496C130.661 192.489 131.112 192.589 131.519 192.787L131.184 193.469C130.886 193.305 130.548 193.22 130.204 193.224C129.758 193.224 129.567 193.354 129.567 193.53C129.567 194.09 131.63 193.53 131.63 194.848C131.63 195.461 131.041 195.89 130.037 195.89C129.512 195.903 128.992 195.781 128.531 195.538V195.538Z" fill="white"/>
<path d="M168.506 193.829C168.506 192.412 169.303 191.615 170.418 191.615C171.533 191.615 172.33 192.381 172.33 193.829C172.33 195.277 171.533 196.051 170.418 196.051C169.303 196.051 168.506 195.247 168.506 193.829ZM171.286 193.829C171.286 192.856 170.936 192.45 170.418 192.45C169.9 192.45 169.55 192.856 169.55 193.829C169.55 194.802 169.908 195.208 170.418 195.208C170.928 195.208 171.286 194.802 171.286 193.829Z" fill="white"/>
<path d="M176.504 194.618C176.5 194.821 176.452 195.021 176.363 195.205C176.274 195.389 176.147 195.554 175.989 195.688C175.831 195.823 175.646 195.925 175.446 195.987C175.245 196.049 175.033 196.071 174.823 196.051C173.588 196.051 172.824 195.285 172.824 193.921C172.792 193.621 172.829 193.318 172.93 193.032C173.032 192.747 173.197 192.486 173.413 192.268C173.63 192.049 173.893 191.879 174.184 191.767C174.476 191.656 174.789 191.606 175.102 191.622C175.536 191.609 175.966 191.71 176.345 191.913L175.962 192.68C175.712 192.529 175.421 192.454 175.126 192.465C174.954 192.454 174.782 192.48 174.622 192.539C174.461 192.599 174.316 192.691 174.196 192.81C174.077 192.929 173.985 193.071 173.928 193.227C173.872 193.383 173.851 193.549 173.867 193.714C174.016 193.582 174.19 193.48 174.38 193.414C174.571 193.348 174.773 193.32 174.975 193.331C175.164 193.315 175.354 193.337 175.534 193.393C175.715 193.45 175.881 193.541 176.024 193.662C176.167 193.782 176.283 193.928 176.365 194.093C176.448 194.257 176.495 194.436 176.504 194.618V194.618ZM175.508 194.672C175.508 194.58 175.487 194.49 175.448 194.406C175.408 194.323 175.351 194.248 175.28 194.187C175.208 194.126 175.124 194.081 175.033 194.053C174.942 194.026 174.846 194.018 174.751 194.028C174.654 194.015 174.555 194.022 174.461 194.048C174.367 194.074 174.28 194.119 174.205 194.18C174.129 194.241 174.068 194.316 174.025 194.4C173.982 194.485 173.958 194.578 173.955 194.672C173.955 195.04 174.242 195.308 174.751 195.308C174.846 195.32 174.942 195.312 175.033 195.286C175.124 195.26 175.208 195.215 175.279 195.155C175.351 195.094 175.408 195.02 175.448 194.937C175.487 194.854 175.508 194.763 175.508 194.672V194.672Z" fill="white"/>
<path d="M178.575 190.818H179.467L177.364 196.588H176.48L178.575 190.818Z" fill="white"/>
<path d="M182.765 195.162V195.975H179.372V195.331L181.093 193.798C181.491 193.438 181.563 193.216 181.563 193.032C181.563 192.695 181.316 192.496 180.846 192.496C180.667 192.49 180.489 192.525 180.328 192.6C180.167 192.675 180.028 192.786 179.922 192.925L179.173 192.465C179.379 192.207 179.648 192.002 179.957 191.868C180.265 191.734 180.604 191.676 180.941 191.699C181.937 191.699 182.598 192.189 182.598 192.963C182.593 193.229 182.523 193.49 182.395 193.726C182.266 193.961 182.082 194.164 181.857 194.319L180.83 195.247L182.765 195.162Z" fill="white"/>
<path d="M187.211 195.07H186.486V195.975H185.482V195.07H183.092V194.404L185.195 191.684H186.279L184.327 194.266H185.53V193.454H186.502V194.258H187.227L187.211 195.07Z" fill="white"/>
<g opacity="0.2">
<path opacity="0.2" d="M168.53 157.961C168.093 156.45 167.12 155.134 165.78 154.241C164.44 153.348 162.817 152.935 161.193 153.073C160.169 153.128 159.163 153.357 158.222 153.747C155.903 154.743 154.286 157.387 155.035 159.716C155.664 161.616 157.584 162.827 159.488 163.624C161.392 164.421 163.814 165.011 165.781 164.122C166.71 163.648 167.478 162.928 167.992 162.046C168.506 161.164 168.745 160.158 168.681 159.149C168.67 158.749 168.62 158.352 168.53 157.961Z" fill="white"/>
</g>
<g opacity="0.2">
<path opacity="0.2" d="M196.101 138.859H90.9469C90.4566 138.859 89.9711 138.952 89.5183 139.132C89.0654 139.313 88.6541 139.578 88.3078 139.912C87.9615 140.246 87.6871 140.642 87.5002 141.078C87.3133 141.514 87.2176 141.981 87.2187 142.452V160.582C93.8545 165.041 102.976 165.823 111.07 164.198C120.629 162.275 129.24 157.586 138.155 153.739C147.069 149.893 156.804 146.843 166.403 148.375C175.468 149.87 183.196 155.272 191.385 159.317C194.077 160.656 196.893 161.749 199.797 162.582V142.452C199.797 141.506 199.409 140.598 198.717 139.925C198.025 139.252 197.085 138.869 196.101 138.859V138.859Z" fill="white"/>
</g>
<path d="M246.654 299.817C247.385 294.873 247.078 289.771 245.763 285.027C244.448 280.283 242.172 276.066 239.166 272.802C239.166 272.802 237.426 271.992 237.576 274.467C237.666 275.949 236.55 278.043 235.62 277.133C234.006 275.552 234.516 272.328 233.82 269.891C233.01 267.033 230.622 265.513 228.42 264.298C224.388 262.044 220.29 259.867 215.958 258.866C211.626 257.865 207.006 258.102 203.052 260.6C204.012 263.061 204.97 265.518 205.926 267.973C206.009 268.296 206.142 268.595 206.317 268.852C206.491 269.109 206.704 269.32 206.943 269.472C207.181 269.624 207.441 269.714 207.708 269.737C207.974 269.761 208.241 269.717 208.494 269.608L213.738 269.119C214.5 269.05 215.49 269.165 215.706 270.089C215.958 271.144 214.968 271.931 214.158 272.297L208.656 274.811C210.486 278.179 213.002 280.849 215.934 282.535C218.856 284.202 221.89 285.529 225 286.5C225.958 286.96 226.999 287.06 228 286.79C229.602 286.133 230.712 283.582 232.38 283.895C232.285 285.067 232.008 286.203 231.565 287.238C231.122 288.273 230.522 289.186 229.8 289.923C236.286 293.162 240.81 297.127 246.6 299.855" fill="#EA6106"/>
<path d="M252.216 336.488C252.216 336.488 252.216 336.42 252.168 336.275L252.06 335.64C251.964 335.06 251.826 334.242 251.658 333.203C251.316 331.056 250.836 328 250.242 324.226C249.948 322.332 249.642 320.253 249.276 318.03C249.108 316.915 248.928 315.738 248.742 314.569L248.466 312.766C248.394 312.147 248.328 311.521 248.256 310.887C247.656 305.86 246.936 300.252 245.01 294.904C243.084 289.556 239.946 285.43 236.976 282.054C234.295 279.089 231.437 276.397 228.426 274.001C225.87 271.923 223.746 270.364 222.282 269.264L220.602 267.996L220.164 267.66C220.068 267.583 220.02 267.538 220.026 267.53L220.182 267.622L220.632 267.927L222.342 269.127C223.824 270.189 225.972 271.717 228.546 273.764C231.583 276.139 234.466 278.819 237.168 281.778C238.757 283.538 240.241 285.445 241.608 287.486C243.083 289.686 244.323 292.123 245.298 294.736C247.242 300.153 247.95 305.799 248.538 310.833C248.61 311.468 248.676 312.086 248.742 312.705C248.808 313.324 248.928 313.92 249.012 314.516L249.534 317.969C249.864 320.2 250.176 322.278 250.458 324.18C251.01 327.955 251.46 331.056 251.778 333.18C251.922 334.219 252.036 335.037 252.12 335.625C252.156 335.893 252.18 336.099 252.204 336.267C252.215 336.34 252.219 336.414 252.216 336.488V336.488Z" fill="#263238"/>
<path d="M262.392 243.93C260.976 246.573 257.022 245.29 256.776 242.104C256.53 238.918 260.214 236.68 262.008 238.933C262.634 229.582 261.886 220.164 259.8 211.162C259.388 213.009 258.693 214.733 257.754 216.235C256.74 217.648 255.108 218.527 253.698 217.847C251.796 216.938 251.232 213.614 252.024 211.231C252.816 208.847 254.532 207.197 256.17 205.661C254.858 202.526 253.056 199.766 250.874 197.55C248.693 195.335 246.179 193.712 243.486 192.78C241.374 197.135 239.232 201.574 238.284 206.532C237.336 211.491 237.762 217.167 240.366 221.048C241.476 222.698 242.94 223.99 243.798 225.869C244.656 227.748 244.596 230.629 243.084 231.637C241.284 232.829 239.298 230.583 238.284 228.375C237.27 226.167 236.244 223.439 234.258 223.027C233.058 240.66 240.228 258.805 252.072 268.103L251.868 267.858C256.57 260.835 260.146 252.705 262.392 243.93ZM253.272 224.402C254.328 223.165 255.589 222.245 256.962 221.713C257.238 221.58 257.539 221.56 257.824 221.656C258.109 221.752 258.364 221.959 258.552 222.248C258.732 222.543 258.86 222.884 258.93 223.247C258.999 223.611 259.007 223.989 258.954 224.356C258.842 225.092 258.602 225.786 258.252 226.389C257.727 227.419 256.99 228.246 256.122 228.78C255.686 229.04 255.211 229.175 254.73 229.175C254.249 229.175 253.774 229.04 253.338 228.78C253.031 228.603 252.766 228.326 252.57 227.977C252.375 227.629 252.254 227.22 252.222 226.793C252.254 226.323 252.364 225.866 252.545 225.454C252.726 225.042 252.974 224.683 253.272 224.402V224.402Z" fill="#EA6106"/>
<path d="M254.832 336.488C254.824 336.397 254.824 336.305 254.832 336.213C254.832 336.007 254.832 335.74 254.802 335.396C254.802 334.632 254.748 333.601 254.706 332.264C254.622 329.513 254.502 325.586 254.346 320.735C254.01 311.001 253.476 297.563 252.612 282.741C251.748 267.92 250.758 254.519 249.924 244.839C249.522 239.995 249.144 236.084 248.886 233.379C248.766 232.042 248.67 230.995 248.604 230.262L248.538 229.452C248.531 229.358 248.531 229.263 248.538 229.169C248.563 229.258 248.579 229.351 248.586 229.444C248.586 229.643 248.64 229.911 248.682 230.254C248.76 231.018 248.874 232.027 249.018 233.356C249.312 236.061 249.72 239.965 250.152 244.816C251.046 254.488 252.09 267.889 252.936 282.718C253.782 297.547 254.298 310.986 254.58 320.727C254.718 325.601 254.802 329.536 254.844 332.264C254.844 333.608 254.844 334.663 254.874 335.404V336.213C254.869 336.307 254.855 336.399 254.832 336.488V336.488Z" fill="#263238"/>
<path d="M232.428 320.101L238.014 350.271H267.288L273.48 320.101H232.428Z" fill="#455A64"/>
<path d="M241.632 343.93C241.632 344.503 243.9 361.8 243.9 361.8H261.708L263.67 343.93H241.632Z" fill="#455A64"/>
<path d="M266.478 350.134C266.478 350.241 260.088 350.332 252.21 350.332C244.332 350.332 237.942 350.241 237.942 350.134C237.942 350.027 244.326 349.935 252.21 349.935C260.094 349.935 266.478 350.019 266.478 350.134Z" fill="#263238"/>
<path d="M269.526 337.971C269.526 338.078 261.99 338.169 252.726 338.169C243.462 338.169 235.896 338.078 235.896 337.971C235.896 337.864 243.432 337.772 252.726 337.772C262.02 337.772 269.526 337.856 269.526 337.971Z" fill="#263238"/>
<path d="M268.2 342.173C268.2 342.28 261.108 342.371 252.36 342.371C243.612 342.371 236.52 342.28 236.52 342.173C236.52 342.066 243.612 341.974 252.36 341.974C261.108 341.974 268.2 342.058 268.2 342.173Z" fill="#263238"/>
<path d="M268.11 346.375C268.11 346.482 261.27 346.573 252.84 346.573C244.41 346.573 237.564 346.482 237.564 346.375C237.564 346.268 244.404 346.176 252.84 346.176C261.276 346.176 268.11 346.26 268.11 346.375Z" fill="#263238"/>
<path d="M270.372 333.868C270.372 333.975 262.5 334.067 252.792 334.067C243.084 334.067 235.2 333.998 235.2 333.868C235.2 333.738 243.072 333.662 252.786 333.662C262.5 333.662 270.372 333.776 270.372 333.868Z" fill="#263238"/>
<path d="M270.936 330.529C270.936 330.636 262.92 330.728 253.026 330.728C243.132 330.728 235.116 330.636 235.116 330.529C235.116 330.422 243.132 330.331 253.026 330.331C262.92 330.331 270.936 330.415 270.936 330.529Z" fill="#263238"/>
<path d="M241.465 28.144C241.465 28.144 241.608 28.144 241.893 28.1082L243.137 28.0365C243.415 28.0365 243.723 27.9946 244.06 28.0006L245.17 28.0365C245.575 28.0365 246.01 28.0364 246.467 28.0902L247.967 28.2516C253.883 28.9975 259.223 31.5057 262.908 35.2693L263.77 36.1659C264.04 36.4827 264.288 36.8174 264.52 37.1522C265.047 37.8313 265.521 38.536 265.938 39.2623C267.23 41.6512 267.93 44.2169 268 46.8179C268 47.2721 268 47.7324 267.955 48.1927V48.8861C267.955 49.1192 267.872 49.3464 267.835 49.5795C267.537 51.4977 266.858 53.366 265.825 55.1147C263.634 58.9121 259.947 62.0353 255.325 64.0092C252.896 65.0497 250.255 65.7397 247.525 66.0476C244.718 66.4049 241.853 66.3461 239.073 65.8742C238.713 65.8144 238.323 65.7487 238 65.677H238.15L227.012 71.2062L226.623 71.4034L226.728 71.0448L229.225 62.1383L229.292 62.2877C224.568 59.3882 221.374 55.186 220.337 50.506C220.159 49.8003 220.046 49.085 220 48.366V47.314C220 46.9613 220 46.6146 220 46.2739C220.133 43.6809 220.935 41.1375 222.355 38.802C223.804 36.3745 225.889 34.2223 228.468 32.4902C231.048 30.758 234.062 29.4861 237.31 28.7597L239.08 28.4071L240.393 28.2516L241.195 28.168C241.285 28.1627 241.375 28.1627 241.465 28.168L241.195 28.2158L240.4 28.2875L239.095 28.4609L237.347 28.8374C235.754 29.2244 234.213 29.7391 232.75 30.3737C228.34 32.3 224.801 35.2817 222.633 38.8976C221.259 41.2103 220.493 43.7226 220.383 46.2799C220.383 46.6206 220.323 46.9613 220.383 47.308C220.443 47.6547 220.435 48.0014 220.458 48.3481C220.496 49.0567 220.602 49.7621 220.772 50.4582C221.808 55.0603 224.968 59.1867 229.63 62.0247L229.72 62.0785V62.1741C228.917 65.0314 228.085 68.0082 227.23 71.0807L226.938 70.9193L238.067 65.3781H238.143H238.225C238.57 65.4498 238.922 65.5156 239.282 65.5753C242.016 66.0394 244.833 66.0961 247.592 65.7427C250.281 65.4454 252.881 64.7693 255.272 63.7462C259.821 61.8028 263.454 58.7335 265.623 55.0011C266.646 53.28 267.317 51.4396 267.61 49.5496C267.647 49.3224 267.7 49.0953 267.73 48.8681L267.775 48.1807C267.775 47.7264 267.85 47.2781 267.828 46.8298C267.807 45.9468 267.709 45.0659 267.535 44.1937C267.054 41.7243 265.935 39.3613 264.25 37.2538C263.995 36.925 263.748 36.5903 263.5 36.2795L262.652 35.3828C259.019 31.6473 253.756 29.1379 247.908 28.3533L246.453 28.1739C245.995 28.1321 245.56 28.1321 245.163 28.1082L244.053 28.0604C243.715 28.0604 243.407 28.0604 243.137 28.0604L241.885 28.0962C241.615 28.15 241.465 28.144 241.465 28.144Z" fill="#263238"/>
<path d="M236.912 38.5509L234.055 55.808H255.227L252.145 38.5509H236.912Z" fill="#455A64"/>
<path d="M250.427 41.0555C250.431 41.2277 250.39 41.3985 250.307 41.5576C250.136 42.0011 249.883 42.422 249.557 42.8069C249.072 43.3865 248.425 43.8692 247.667 44.2176C246.723 44.627 245.66 44.833 244.585 44.8154C243.508 44.8268 242.445 44.6212 241.495 44.2176C240.725 43.8763 240.079 43.3821 239.62 42.783C239.31 42.3896 239.08 41.96 238.937 41.5098C238.84 41.187 238.832 41.0077 238.862 41.0017C239.106 41.5857 239.439 42.1438 239.852 42.6635C240.313 43.2109 240.936 43.6586 241.667 43.9666C242.574 44.321 243.575 44.4953 244.585 44.4747C245.596 44.4854 246.595 44.2921 247.487 43.9128C248.212 43.5954 248.841 43.157 249.332 42.6276C249.761 42.1335 250.128 41.6069 250.427 41.0555V41.0555Z" fill="white"/>
<path d="M82.4266 199.086C82.4333 194.771 81.2312 190.54 78.9571 186.876C76.6831 183.212 73.4283 180.261 69.5633 178.359C65.6983 176.458 61.3782 175.681 57.0947 176.119C52.8111 176.556 48.7361 178.19 45.3334 180.834C41.9307 183.478 39.3368 187.026 37.8471 191.075C36.3574 195.124 36.0316 199.51 36.9068 203.735C37.7819 207.96 39.8229 211.854 42.7975 214.974C45.7721 218.094 49.5609 220.314 53.7326 221.382L59.2347 231L64.4808 221.623C69.5833 220.471 74.1417 217.611 77.4041 213.514C80.6665 209.417 82.438 204.328 82.4266 199.086Z" fill="#263238" stroke="#263238" stroke-linecap="round" stroke-linejoin="round"/>
<path d="M60.5948 211.653V215H57.846V211.78C55.403 211.691 53.0316 210.863 51 209.389L52.517 205.76C54.096 206.95 55.9317 207.677 57.846 207.87V202.892C54.799 202.09 51.363 200.979 51.363 196.718C51.363 193.568 53.4765 190.853 57.846 190.319V187H60.5948V190.249C62.5599 190.374 64.4702 191 66.1701 192.077L64.7957 195.733C63.5025 194.924 62.0751 194.398 60.5948 194.186V199.263C63.6418 200.037 66.9999 201.134 66.9999 205.339C67.0129 208.404 64.9124 211.09 60.5948 211.653ZM57.846 198.49V194.271C56.3938 194.622 55.8104 195.494 55.8104 196.465C55.8104 197.435 56.6402 198.068 57.846 198.49ZM62.5656 205.662C62.5656 204.621 61.7747 204.059 60.5948 203.609V207.729C61.9692 207.392 62.5656 206.618 62.5656 205.662Z" fill="#EA6106"/>
</svg>
