<svg width="314" height="372" viewBox="0 0 314 372" fill="none" xmlns="http://www.w3.org/2000/svg">
<g clip-path="url(#clip0_4_431)">
<path d="M276.904 152.721H250.484V118.605H276.904V152.721ZM250.528 152.721H276.904V118.629H250.528V152.721Z" fill="#E0E0E0"/>
<path d="M254.039 148.294C253.906 148.546 253.748 148.776 253.568 148.979C253.254 149.383 252.82 149.928 252.312 150.535C251.803 151.141 251.382 151.655 251.056 152.028C250.892 152.248 250.706 152.442 250.503 152.604C250.637 152.355 250.795 152.128 250.974 151.927C251.282 151.523 251.715 150.978 252.23 150.371C252.745 149.764 253.166 149.251 253.486 148.877C253.649 148.655 253.835 148.458 254.039 148.294V148.294Z" fill="#E0E0E0"/>
<path d="M273.343 148.232C273.547 148.402 273.734 148.601 273.902 148.823C274.222 149.204 274.662 149.741 275.158 150.379C275.654 151.017 276.063 151.538 276.364 151.935C276.54 152.142 276.696 152.374 276.829 152.627C276.625 152.463 276.439 152.267 276.276 152.044C275.949 151.655 275.51 151.118 275.02 150.488C274.53 149.858 274.109 149.329 273.808 148.932C273.631 148.722 273.475 148.487 273.343 148.232V148.232Z" fill="#E0E0E0"/>
<path d="M273.293 123.266C273.432 123.017 273.592 122.788 273.77 122.581C274.078 122.176 274.511 121.632 274.995 121.025C275.478 120.418 275.931 119.905 276.251 119.523C276.419 119.305 276.606 119.112 276.81 118.948C276.671 119.196 276.511 119.426 276.333 119.632C276.025 120.037 275.592 120.582 275.108 121.188C274.624 121.795 274.172 122.309 273.852 122.682C273.684 122.903 273.497 123.098 273.293 123.266V123.266Z" fill="#E0E0E0"/>
<path d="M253.988 123.328C253.788 123.156 253.602 122.957 253.436 122.737C253.109 122.355 252.67 121.819 252.18 121.181C251.69 120.543 251.275 120.021 250.974 119.625C250.797 119.418 250.641 119.186 250.509 118.932C250.71 119.098 250.893 119.294 251.056 119.516C251.382 119.897 251.822 120.441 252.312 121.072C252.801 121.702 253.216 122.231 253.517 122.628C253.699 122.834 253.857 123.069 253.988 123.328Z" fill="#E0E0E0"/>
<path d="M263.189 98.533C262.983 98.8969 262.747 99.2332 262.485 99.5366C262.033 100.128 261.399 100.929 260.683 101.801C259.967 102.672 259.314 103.45 258.799 104.002C258.553 104.325 258.277 104.61 257.976 104.85C258.176 104.483 258.41 104.146 258.673 103.847C259.125 103.255 259.766 102.446 260.482 101.575C261.198 100.704 261.857 99.9256 262.366 99.3732C262.609 99.0488 262.885 98.7662 263.189 98.533V98.533Z" fill="#E0E0E0"/>
<path d="M291.562 98.4396C291.862 98.6867 292.136 98.9794 292.378 99.311C292.855 99.8712 293.502 100.657 294.205 101.544C294.909 102.431 295.537 103.24 295.983 103.839C296.241 104.144 296.468 104.486 296.661 104.858C296.366 104.608 296.094 104.318 295.851 103.995C295.374 103.434 294.727 102.641 294.023 101.754C293.32 100.867 292.686 100.05 292.24 99.4199C291.985 99.1259 291.757 98.7971 291.562 98.4396Z" fill="#E0E0E0"/>
<path d="M291.486 61.7413C291.682 61.3685 291.917 61.0285 292.183 60.7299C292.642 60.1387 293.276 59.3373 293.992 58.466C294.708 57.5946 295.361 56.8166 295.845 56.2642C296.092 55.9477 296.366 55.6635 296.661 55.4162C296.463 55.7879 296.229 56.1276 295.964 56.4276C295.512 57.0189 294.877 57.8202 294.161 58.6916C293.446 59.5629 292.786 60.3487 292.277 60.8933C292.039 61.211 291.774 61.4953 291.486 61.7413V61.7413Z" fill="#E0E0E0"/>
<path d="M263.132 61.8269C262.835 61.5798 262.563 61.2899 262.322 60.9634C261.838 60.4032 261.191 59.6096 260.488 58.7227C259.785 57.8358 259.163 57.0267 258.717 56.3887C258.458 56.0863 258.228 55.7468 258.033 55.3773C258.331 55.6213 258.603 55.9115 258.843 56.2409C259.32 56.8011 259.973 57.5868 260.677 58.4738C261.38 59.3607 262.008 60.1776 262.454 60.8078C262.711 61.1132 262.939 61.4553 263.132 61.8269V61.8269Z" fill="#E0E0E0"/>
<path d="M52.9906 275.87C56.2248 273.801 60.0305 273.536 63.6227 274.268C65.5506 274.664 67.5602 275.38 68.8728 277.177C70.1853 278.975 70.4365 282.125 68.9293 283.674C68.0312 284.592 66.7815 284.732 65.6197 284.708C62.8063 284.669 59.6851 284.055 57.4557 286.155C56.1997 287.346 55.3205 289.337 53.7882 289.921C52.2559 290.504 50.5979 289.4 49.8067 287.727C49.0744 285.984 48.9125 283.958 49.3545 282.071C49.5349 280.761 49.9568 279.52 50.5875 278.444C51.2181 277.369 52.0405 276.488 52.9906 275.87Z" fill="#EBEBEB"/>
<path d="M45.5802 258.155C47.5584 261.648 51.4018 260.489 53.1853 258.357C54.9688 256.226 55.6973 253.129 56.407 250.173C57.9707 243.428 59.547 236.356 58.3852 229.486C58.1063 227.403 57.3672 225.456 56.25 223.861C55.6861 223.074 54.965 222.485 54.1592 222.153C53.3533 221.822 52.4911 221.758 51.6593 221.97C49.725 222.601 48.5193 224.958 47.6464 227.191C45.0837 233.795 43.7408 241.024 43.7151 248.352C43.7151 251.76 44.0291 255.354 45.5991 258.155" fill="#EBEBEB"/>
<path d="M40.148 263.173C42.2958 260.015 42.704 255.393 41.7494 251.457C40.7949 247.52 38.6094 244.136 36.1477 241.389C33.2165 238.157 29.803 235.668 26.0997 234.061C24.6691 233.347 23.1312 233.023 21.5906 233.111C20.8243 233.17 20.0809 233.458 19.4245 233.951C18.7681 234.445 18.2183 235.128 17.8226 235.943C16.7676 238.441 17.7787 241.467 18.8714 243.933C20.7998 248.291 23.0025 252.453 25.4591 256.381C27.4373 259.532 29.6981 262.644 32.7062 264.068C35.7144 265.492 38.8418 265.328 40.4369 262.738" fill="#EBEBEB"/>
<path d="M45.4484 310.935C45.5508 310.412 45.6098 309.878 45.6242 309.34C45.7184 308.188 45.8314 306.734 45.9696 305.006C46.1434 302.87 46.4054 300.746 46.7546 298.642C47.2213 296.079 47.8512 293.566 48.6386 291.127C49.4098 288.695 50.452 286.409 51.7346 284.335C52.7828 282.645 54.1214 281.266 55.6534 280.297C56.6901 279.657 57.8034 279.229 58.9504 279.029C59.3748 279.01 59.7961 278.932 60.2064 278.796C59.774 278.745 59.3388 278.745 58.9064 278.796C57.7168 278.909 56.5534 279.286 55.4712 279.908C53.8578 280.846 52.443 282.236 51.339 283.969C49.9989 286.074 48.9175 288.412 48.1299 290.909C47.3233 293.38 46.6929 295.934 46.2459 298.541C45.9145 300.67 45.6859 302.821 45.5614 304.983C45.4484 306.827 45.4107 308.321 45.3856 309.348C45.3623 309.878 45.3833 310.41 45.4484 310.935V310.935Z" fill="#E0E0E0"/>
<path d="M45.687 307.597C45.7264 307.341 45.739 307.079 45.7247 306.819C45.7247 306.267 45.7247 305.567 45.7247 304.711C45.7247 302.875 45.7247 300.229 45.8 296.931C45.9319 290.388 46.3841 283.347 47.2633 273.42C48.0985 264.084 49.2101 253.192 50.4033 246.151C50.6545 244.548 50.912 243.101 51.1506 241.833C51.3892 240.565 51.5714 239.499 51.7786 238.589L52.124 236.628C52.1804 236.393 52.2142 236.15 52.2245 235.904C52.133 236.124 52.0634 236.356 52.0172 236.597C51.8916 237.126 51.7284 237.795 51.5274 238.62C51.3264 239.444 51.1004 240.518 50.868 241.809C50.6356 243.101 50.3216 244.517 50.0453 246.12C48.5829 254.474 47.4844 262.92 46.7546 271.42C45.8754 281.371 45.4986 290.427 45.4421 296.985C45.4421 300.268 45.4421 302.921 45.5363 304.765C45.5802 305.629 45.6116 306.321 45.643 306.874C45.6338 307.116 45.6485 307.359 45.687 307.597V307.597Z" fill="#E0E0E0"/>
<path d="M45.7247 290.123C45.7726 289.391 45.7726 288.654 45.7247 287.922C45.6556 286.506 45.4986 284.459 45.1783 281.946C44.7899 279.013 44.2679 276.109 43.6146 273.248C42.8465 269.73 41.864 266.289 40.6755 262.955C38.6296 256.808 35.6996 251.172 32.028 246.322C31.3932 245.49 30.7156 244.711 29.9995 243.988C29.6855 243.661 29.4092 243.334 29.1329 243.078L28.3479 242.408C27.875 241.961 27.373 241.563 26.847 241.218C26.7591 241.358 28.9696 242.969 31.7579 246.664C35.3091 251.548 38.1613 257.147 40.192 263.22C41.3566 266.533 42.3427 269.937 43.1436 273.412C43.9097 276.609 44.3996 279.55 44.8078 282.024C45.216 284.498 45.3918 286.537 45.5174 287.937C45.5401 288.671 45.6094 289.402 45.7247 290.123Z" fill="#E0E0E0"/>
<path d="M32.0908 320.94L33.5038 344.926H58.3789L59.7919 320.94H32.0908Z" fill="#E0E0E0"/>
<path d="M62.7623 311.487H29.6918V320.94H62.7623V311.487Z" fill="#E0E0E0"/>
<path d="M29.6918 344.008V346.629H31.243H62.2097V344.008H29.6918Z" fill="#EBEBEB"/>
<path d="M32.769 351.243L31.243 346.629H61.029L59.2518 351.243H32.769Z" fill="#E0E0E0"/>
<path d="M59.3271 328.782C59.3271 328.782 59.3271 328.86 59.2141 329L58.8436 329.615L57.3929 331.949L57.3301 332.05L57.2673 331.941L53.7065 325.841H53.9138L50.4033 331.995L50.2965 332.182L50.1709 332.003L46.0198 325.88H46.2585L46.0261 326.238L42.3084 332.011L42.189 332.205L42.076 332.003L38.5655 325.857H38.7727L34.4521 331.956L34.3767 332.065L34.3139 331.941C33.7487 330.758 33.2966 329.809 32.9637 329.124L32.6183 328.346C32.576 328.263 32.5403 328.174 32.5116 328.082C32.5116 328.082 32.5681 328.152 32.656 328.315L33.0391 329.039L34.4583 331.801H34.3265C35.4318 330.198 36.8761 328.105 38.5717 325.631L38.6785 325.476L38.779 325.647L42.3146 331.762H42.076L45.7875 325.981L46.0135 325.631L46.1329 325.445L46.2522 325.623L50.397 331.762H50.1646L53.7065 325.639L53.807 325.46L53.9138 325.639L57.3929 331.809H57.2673C57.8953 330.867 58.4103 330.12 58.7745 329.568L59.1827 328.992C59.2706 328.837 59.3209 328.774 59.3271 328.782Z" fill="#F5F5F5"/>
<path d="M60.1373 320.784C60.1373 320.893 53.9075 320.979 46.2208 320.979C38.5341 320.979 32.298 320.893 32.298 320.784C32.298 320.675 38.5278 320.59 46.2208 320.59C53.9138 320.59 60.1373 320.652 60.1373 320.784Z" fill="#F5F5F5"/>
<path d="M61.3933 346.886C61.3933 346.995 54.6234 347.081 46.2647 347.081C37.9061 347.081 31.1362 346.995 31.1362 346.886C31.1362 346.777 37.9123 346.699 46.2647 346.699C54.6171 346.699 61.3933 346.785 61.3933 346.886Z" fill="#F5F5F5"/>
<path d="M204.877 360.798L94.1404 360.322C90.9699 360.309 87.8333 359.711 84.9099 358.562C81.9866 357.414 79.3339 355.737 77.1036 353.628C74.8733 351.519 73.1092 349.019 71.9121 346.272C70.715 343.524 70.1084 340.583 70.1271 337.616L71.2944 77.7813C71.3086 74.8158 71.9468 71.882 73.1726 69.1474C74.3984 66.4128 76.1878 63.9309 78.4385 61.8434C80.6893 59.7559 83.3573 58.1038 86.2904 56.9813C89.2235 55.8588 92.3641 55.2879 95.5329 55.3013L206.278 55.785C209.447 55.8014 212.582 56.402 215.503 57.5525C218.424 58.7031 221.074 60.381 223.301 62.4904C225.529 64.5998 227.291 67.0994 228.486 69.8462C229.681 72.5931 230.286 75.5334 230.266 78.4991L229.091 338.334C229.057 344.316 226.489 350.042 221.949 354.253C217.41 358.465 211.27 360.819 204.877 360.798V360.798Z" fill="#263238"/>
<path d="M206.086 64.7973L184.616 64.7037C183.915 64.7149 183.224 64.8552 182.582 65.1166C181.939 65.3781 181.358 65.7555 180.872 66.2273C180.386 66.6991 180.004 67.2561 179.747 67.8662C179.491 68.4764 179.366 69.1279 179.38 69.7833V73.4273C179.402 74.7498 178.863 76.0269 177.882 76.9788C176.901 77.9308 175.556 78.4803 174.143 78.5069L132.287 78.3197C131.587 78.3025 130.898 78.1564 130.258 77.8898C129.619 77.6232 129.042 77.2414 128.56 76.766C128.079 76.2906 127.702 75.7311 127.451 75.1194C127.201 74.5077 127.082 73.8558 127.1 73.201V69.5571C127.134 68.2336 126.607 66.9516 125.633 65.991C124.66 65.0304 123.32 64.4694 121.906 64.4306H114.352L95.5662 64.3448C93.3468 64.3355 91.1471 64.7355 89.0927 65.5218C87.0384 66.3081 85.1697 67.4654 83.5934 68.9276C82.017 70.3897 80.7638 72.1282 79.9053 74.0436C79.0469 75.959 78.6 78.0139 78.5901 80.0909L77.4478 333.683C77.4301 337.875 79.1917 341.901 82.3454 344.877C85.4991 347.854 89.7867 349.536 94.2655 349.554L204.785 350.038C209.267 350.055 213.573 348.406 216.756 345.453C219.939 342.501 221.739 338.486 221.761 334.292L222.904 80.6995C222.917 78.6215 222.492 76.5615 221.654 74.6373C220.816 72.7131 219.58 70.9624 218.018 69.4854C216.456 68.0085 214.598 66.8342 212.551 66.0297C210.503 65.2253 208.307 64.8065 206.086 64.7973Z" fill="#FAFAFA"/>
<path d="M211.139 92.7159C211.147 92.8736 211.104 93.0299 211.015 93.1642C210.926 93.2984 210.796 93.4043 210.642 93.4679C210.487 93.5314 210.316 93.5496 210.15 93.5201C209.984 93.4905 209.832 93.4146 209.713 93.3024C209.595 93.1901 209.515 93.0469 209.485 92.8915C209.456 92.7361 209.477 92.5758 209.546 92.432C209.616 92.2881 209.73 92.1674 209.875 92.0857C210.019 92.0041 210.187 91.9653 210.355 91.9746C210.564 91.9767 210.763 92.0557 210.91 92.1945C211.057 92.3333 211.139 92.5206 211.139 92.7159Z" fill="#263238"/>
<path d="M211.131 95.3845C211.131 95.5311 211.084 95.6745 210.997 95.7964C210.91 95.9183 210.786 96.0133 210.642 96.0694C210.497 96.1255 210.338 96.1402 210.184 96.1116C210.03 96.083 209.889 96.0124 209.778 95.9087C209.668 95.805 209.592 95.6729 209.562 95.5291C209.531 95.3853 209.547 95.2363 209.607 95.1009C209.667 94.9654 209.768 94.8496 209.898 94.7682C210.029 94.6867 210.182 94.6432 210.338 94.6432C210.549 94.6432 210.75 94.7213 210.899 94.8604C211.047 94.9994 211.131 95.1879 211.131 95.3845Z" fill="#263238"/>
<path d="M211.089 98.0687C211.089 98.2756 211.001 98.4741 210.845 98.6204C210.688 98.7667 210.476 98.8489 210.255 98.8489C210.088 98.7976 209.943 98.6984 209.84 98.5652C209.737 98.4321 209.682 98.272 209.682 98.1077C209.682 97.9433 209.737 97.7832 209.84 97.6501C209.943 97.517 210.088 97.4177 210.255 97.3664C210.463 97.3654 210.663 97.4368 210.817 97.5667C210.971 97.6965 211.068 97.8755 211.089 98.0687Z" fill="#263238"/>
<path d="M212.498 132.721H101.861C99.8813 132.721 98.2761 134.223 98.2761 136.076V199.311C98.2761 201.164 99.8813 202.666 101.861 202.666H212.498C214.478 202.666 216.083 201.164 216.083 199.311V136.076C216.083 134.223 214.478 132.721 212.498 132.721Z" fill="#F5F5F5"/>
<path d="M209.263 128.18H98.6263C96.6462 128.18 95.041 129.682 95.041 131.535V194.769C95.041 196.622 96.6462 198.124 98.6263 198.124H209.263C211.243 198.124 212.848 196.622 212.848 194.769V131.535C212.848 129.682 211.243 128.18 209.263 128.18Z" fill="#E0E0E0"/>
<path d="M184.274 113.979H183.148L182.94 114.463H182.365L183.44 112.2H183.999L185.083 114.463H184.491L184.274 113.979ZM184.099 113.581L183.715 112.715L183.332 113.581H184.099Z" fill="#263238"/>
<path d="M185.333 112.2H186.433C186.604 112.181 186.777 112.196 186.941 112.244C187.105 112.293 187.256 112.373 187.385 112.48C187.513 112.587 187.616 112.718 187.686 112.865C187.757 113.011 187.793 113.17 187.793 113.331C187.793 113.492 187.757 113.651 187.686 113.798C187.616 113.944 187.513 114.076 187.385 114.182C187.256 114.289 187.105 114.37 186.941 114.418C186.777 114.466 186.604 114.481 186.433 114.463H185.333V112.2ZM186.408 114.033C186.607 114.033 186.798 113.959 186.939 113.828C187.08 113.696 187.159 113.517 187.159 113.331C187.159 113.145 187.08 112.966 186.939 112.835C186.798 112.703 186.607 112.629 186.408 112.629H185.9V114.033H186.408Z" fill="#263238"/>
<path d="M188.201 112.2H189.302C189.472 112.181 189.645 112.196 189.809 112.244C189.973 112.293 190.124 112.373 190.253 112.48C190.381 112.587 190.484 112.718 190.555 112.865C190.625 113.011 190.661 113.17 190.661 113.331C190.661 113.492 190.625 113.651 190.555 113.798C190.484 113.944 190.381 114.076 190.253 114.182C190.124 114.289 189.973 114.37 189.809 114.418C189.645 114.466 189.472 114.481 189.302 114.463H188.201V112.2ZM189.268 114.033C189.467 114.033 189.658 113.959 189.799 113.828C189.94 113.696 190.019 113.517 190.019 113.331C190.019 113.145 189.94 112.966 189.799 112.835C189.658 112.703 189.467 112.629 189.268 112.629H188.76V114.033H189.268Z" fill="#263238"/>
<path d="M194.246 114.455V113.097L193.529 114.213H193.279L192.57 113.128V114.455H192.045V112.192H192.504L193.412 113.596L194.305 112.192H194.763V114.455H194.246Z" fill="#263238"/>
<path d="M195.197 113.331C195.182 113.083 195.246 112.837 195.383 112.624C195.519 112.411 195.72 112.241 195.961 112.136C196.201 112.031 196.47 111.996 196.732 112.036C196.994 112.076 197.237 112.188 197.43 112.358C197.623 112.529 197.757 112.749 197.814 112.992C197.872 113.234 197.851 113.487 197.753 113.718C197.655 113.949 197.486 114.147 197.266 114.286C197.047 114.426 196.788 114.501 196.522 114.501C196.352 114.51 196.182 114.486 196.022 114.431C195.862 114.376 195.716 114.291 195.592 114.182C195.468 114.072 195.369 113.941 195.301 113.794C195.233 113.648 195.198 113.49 195.197 113.331ZM197.281 113.331C197.278 113.191 197.231 113.056 197.145 112.941C197.06 112.826 196.94 112.738 196.801 112.686C196.663 112.635 196.51 112.623 196.364 112.652C196.218 112.681 196.085 112.75 195.98 112.85C195.876 112.95 195.805 113.076 195.777 113.214C195.749 113.351 195.765 113.493 195.823 113.622C195.881 113.751 195.978 113.861 196.103 113.938C196.227 114.015 196.373 114.057 196.522 114.057C196.624 114.059 196.725 114.042 196.819 114.006C196.914 113.97 196.999 113.916 197.07 113.848C197.141 113.78 197.197 113.699 197.233 113.61C197.269 113.521 197.286 113.426 197.281 113.331V113.331Z" fill="#263238"/>
<path d="M199.824 114.455L199.357 113.823H198.84V114.455H198.282V112.192H199.324C199.974 112.192 200.375 112.504 200.375 112.972C200.376 113.124 200.33 113.272 200.243 113.4C200.155 113.527 200.03 113.628 199.883 113.69L200.425 114.416L199.824 114.455ZM199.299 112.613H198.84V113.394H199.299C199.641 113.394 199.808 113.245 199.808 112.996C199.808 112.746 199.641 112.621 199.299 112.621V112.613Z" fill="#263238"/>
<path d="M202.701 114.041V114.455H200.825V112.192H202.659V112.613H201.383V113.105H202.509V113.511H201.383V114.033L202.701 114.041Z" fill="#263238"/>
<path d="M204.66 113.526H204.052V114.08H203.585V113.526H202.984V113.136H203.585V112.582H204.027V113.136H204.635L204.66 113.526Z" fill="#263238"/>
<path d="M91.1554 95.9073C91.1915 95.3495 91.4022 94.814 91.7611 94.3675C92.12 93.9209 92.6113 93.5831 93.1739 93.3959C93.7366 93.2088 94.3456 93.1807 94.9251 93.315C95.5047 93.4494 96.0292 93.7403 96.4334 94.1516L95.5996 94.8617C95.4335 94.6684 95.2225 94.5132 94.9827 94.4077C94.7428 94.3023 94.4805 94.2494 94.2155 94.2531C93.7467 94.2531 93.2971 94.4274 92.9656 94.7376C92.6341 95.0478 92.4478 95.4686 92.4478 95.9073C92.4478 96.346 92.6341 96.7667 92.9656 97.077C93.2971 97.3872 93.7467 97.5615 94.2155 97.5615C94.4805 97.5652 94.7428 97.5123 94.9827 97.4068C95.2225 97.3014 95.4335 97.1461 95.5996 96.9529L96.4334 97.6629C96.0292 98.0742 95.5047 98.3652 94.9251 98.4995C94.3456 98.6339 93.7366 98.6058 93.1739 98.4186C92.6113 98.2315 92.12 97.8936 91.7611 97.4471C91.4022 97.0005 91.1915 96.465 91.1554 95.9073Z" fill="#263238"/>
<path d="M100.928 96.2272V98.4978H99.7769V97.9985C99.6358 98.1922 99.4409 98.3461 99.2131 98.4438C98.9854 98.5414 98.7334 98.579 98.4845 98.5525C97.484 98.5525 96.892 98.0375 96.892 97.3508C96.892 96.6642 97.4256 96.157 98.718 96.157H99.7019C99.7019 95.6654 99.385 95.3767 98.718 95.3767C98.2782 95.3739 97.8488 95.5023 97.4923 95.7435L97.0504 94.9632C97.5969 94.635 98.2355 94.4665 98.8847 94.4794C100.194 94.456 100.928 95.0256 100.928 96.2272ZM99.7019 97.2416V96.8358H98.8681C98.2928 96.8358 98.1093 97.0309 98.1093 97.2962C98.1093 97.5615 98.3761 97.78 98.8097 97.78C98.9997 97.7879 99.1876 97.7403 99.3475 97.6439C99.5073 97.5474 99.6312 97.4068 99.7019 97.2416V97.2416Z" fill="#263238"/>
<path d="M104.68 94.456V95.5249H104.404C104.248 95.512 104.09 95.5322 103.943 95.584C103.795 95.6358 103.662 95.7179 103.553 95.8243C103.444 95.9306 103.363 96.0585 103.314 96.1985C103.265 96.3385 103.25 96.4869 103.271 96.6329V98.5134H102.045V94.534H103.22V95.0568C103.393 94.8532 103.616 94.6921 103.871 94.5874C104.125 94.4827 104.403 94.4376 104.68 94.456V94.456Z" fill="#263238"/>
<path d="M109.699 93.0125V98.4744H108.532V98.0687C108.368 98.2442 108.163 98.382 107.933 98.4713C107.703 98.5607 107.454 98.5991 107.206 98.5837C106.649 98.5515 106.126 98.3217 105.744 97.9411C105.361 97.5605 105.148 97.0578 105.148 96.5354C105.148 96.0131 105.361 95.5104 105.744 95.1298C106.126 94.7492 106.649 94.5194 107.206 94.4872C107.443 94.4782 107.68 94.5167 107.9 94.6002C108.12 94.6836 108.318 94.81 108.482 94.971V93.0437L109.699 93.0125ZM108.532 96.5081C108.514 96.3117 108.435 96.1244 108.306 95.9691C108.176 95.8138 108 95.6972 107.801 95.6337C107.602 95.5702 107.387 95.5624 107.183 95.6113C106.979 95.6603 106.794 95.7638 106.652 95.9093C106.51 96.0547 106.416 96.2358 106.382 96.4303C106.348 96.6249 106.375 96.8245 106.461 97.0048C106.546 97.185 106.686 97.3381 106.862 97.4453C107.039 97.5525 107.246 97.6091 107.456 97.6083C107.607 97.6102 107.756 97.5822 107.894 97.5263C108.032 97.4703 108.156 97.3877 108.257 97.2838C108.359 97.1799 108.436 97.0571 108.483 96.9234C108.531 96.7897 108.547 96.6482 108.532 96.5081Z" fill="#263238"/>
<path d="M110.424 98.1311L110.833 97.2962C111.281 97.5498 111.794 97.6847 112.317 97.6863C112.884 97.6863 113.093 97.5459 113.093 97.3196C113.093 96.6719 110.525 97.3196 110.525 95.759C110.525 94.9787 111.258 94.4715 112.492 94.4715C113.071 94.4589 113.643 94.5794 114.16 94.8227L113.751 95.642C113.377 95.4464 112.955 95.3443 112.526 95.3455C111.975 95.3455 111.742 95.5093 111.742 95.72C111.742 96.3989 114.302 95.72 114.302 97.2806C114.302 98.0218 113.568 98.5446 112.301 98.5446C111.647 98.5653 110.999 98.4226 110.424 98.1311V98.1311Z" fill="#263238"/>
<path d="M140.158 263.325H138.724V262.35H142.893V263.325H141.467V266.712H140.149L140.158 263.325Z" fill="#263238"/>
<path d="M143.084 264.527C143.049 264.039 143.172 263.553 143.436 263.132C143.7 262.71 144.093 262.373 144.565 262.163C145.037 261.954 145.565 261.882 146.081 261.957C146.596 262.033 147.076 262.251 147.457 262.585C147.839 262.919 148.104 263.352 148.218 263.829C148.333 264.306 148.291 264.804 148.099 265.258C147.907 265.712 147.573 266.102 147.142 266.377C146.71 266.651 146.2 266.798 145.677 266.797C145.346 266.816 145.013 266.772 144.7 266.667C144.388 266.561 144.101 266.397 143.858 266.185C143.615 265.972 143.422 265.716 143.289 265.43C143.156 265.145 143.086 264.838 143.084 264.527V264.527ZM146.937 264.527C146.922 264.297 146.836 264.077 146.689 263.892C146.542 263.708 146.341 263.568 146.11 263.49C145.879 263.411 145.628 263.398 145.389 263.451C145.15 263.504 144.933 263.621 144.764 263.788C144.595 263.956 144.483 264.165 144.44 264.392C144.397 264.618 144.426 264.851 144.523 265.063C144.62 265.274 144.781 265.454 144.986 265.58C145.192 265.707 145.432 265.775 145.677 265.775C145.85 265.777 146.02 265.745 146.179 265.682C146.337 265.618 146.48 265.525 146.598 265.408C146.716 265.291 146.807 265.152 146.866 265.001C146.924 264.849 146.948 264.688 146.937 264.527V264.527Z" fill="#263238"/>
<path d="M149.888 263.325H148.454V262.35H152.623V263.325H151.197V266.712H149.888V263.325Z" fill="#263238"/>
<path d="M156.058 265.869H154.082L153.715 266.712H152.373L154.432 262.35H155.733L157.793 266.712H156.425L156.058 265.869ZM155.666 264.956L155.066 263.559L154.466 264.956H155.666Z" fill="#263238"/>
<path d="M158.126 262.35H159.443V265.736H161.67V266.712H158.126V262.35Z" fill="#263238"/>
<path d="M129.46 283.503V284.853H128.835V283.519C127.727 283.502 126.662 283.12 125.825 282.442L126.192 281.771C126.927 282.373 127.859 282.723 128.835 282.762V279.641C127.451 279.321 126.042 278.923 126.042 277.37C126.042 276.239 126.875 275.263 128.835 275.123V273.765H129.46V275.107C130.366 275.131 131.248 275.385 132.012 275.841L131.695 276.535C131.025 276.13 130.256 275.894 129.46 275.849V278.97C130.878 279.282 132.378 279.656 132.378 281.24C132.378 282.411 131.461 283.394 129.46 283.503ZM128.835 278.822V275.88C127.534 275.989 126.959 276.613 126.959 277.355C126.959 278.268 127.801 278.595 128.835 278.845V278.822ZM131.461 281.295C131.461 280.359 130.544 280.047 129.46 279.797V282.739C130.844 282.668 131.461 282.068 131.461 281.318V281.295Z" fill="#263238"/>
<path d="M139.382 275.193V283.425H138.473V275.974H136.397V275.193H139.382Z" fill="#263238"/>
<path d="M148.204 281.155C148.204 282.606 146.886 283.496 144.785 283.496C142.684 283.496 141.392 282.583 141.392 281.155C141.386 280.69 141.547 280.238 141.85 279.87C142.152 279.502 142.578 279.24 143.059 279.126C142.651 279.005 142.295 278.763 142.045 278.436C141.796 278.11 141.666 277.717 141.675 277.316C141.675 275.974 142.893 275.139 144.752 275.139C146.611 275.139 147.862 275.974 147.862 277.316C147.868 277.72 147.734 278.114 147.48 278.441C147.226 278.767 146.866 279.008 146.453 279.126C146.949 279.226 147.393 279.482 147.711 279.851C148.03 280.22 148.204 280.68 148.204 281.155V281.155ZM147.278 281.155C147.278 280.14 146.344 279.508 144.777 279.508C143.209 279.508 142.276 280.14 142.276 281.155C142.276 282.169 143.193 282.817 144.777 282.817C146.361 282.817 147.278 282.161 147.278 281.139V281.155ZM144.777 278.814C146.153 278.814 146.97 278.236 146.97 277.339C146.97 276.442 146.136 275.849 144.777 275.849C143.418 275.849 142.601 276.411 142.601 277.331C142.601 278.252 143.418 278.822 144.785 278.822L144.777 278.814Z" fill="#263238"/>
<path d="M149.463 279.329C149.463 276.707 150.93 275.139 152.965 275.139C154.999 275.139 156.483 276.699 156.483 279.329C156.483 281.958 154.999 283.519 152.965 283.519C150.93 283.519 149.463 281.951 149.463 279.329ZM155.558 279.329C155.558 277.128 154.499 275.919 152.965 275.919C151.431 275.919 150.38 277.128 150.38 279.329C150.38 281.529 151.431 282.739 152.965 282.739C154.499 282.739 155.558 281.529 155.558 279.329Z" fill="#263238"/>
<path d="M158.993 282.856C158.98 283.093 158.92 283.325 158.818 283.542L158.293 285.165H157.726L158.151 283.456C158.015 283.418 157.896 283.338 157.815 283.229C157.733 283.12 157.693 282.989 157.701 282.856C157.697 282.773 157.712 282.691 157.744 282.614C157.775 282.537 157.824 282.466 157.885 282.407C157.947 282.348 158.021 282.301 158.102 282.27C158.184 282.238 158.271 282.223 158.36 282.224C158.533 282.23 158.696 282.3 158.815 282.418C158.934 282.536 158.998 282.693 158.993 282.856V282.856Z" fill="#263238"/>
<path d="M166.439 282.692V283.472H160.227V282.879L163.888 279.524C164.88 278.603 165.072 278.049 165.072 277.487C165.072 276.535 164.355 275.927 163.012 275.927C162.564 275.9 162.116 275.968 161.7 276.126C161.284 276.284 160.912 276.528 160.611 276.84L159.969 276.325C160.363 275.925 160.847 275.611 161.386 275.407C161.926 275.204 162.507 275.115 163.087 275.147C164.871 275.147 165.997 275.997 165.997 277.37C165.997 278.151 165.739 278.861 164.555 279.945L161.561 282.7L166.439 282.692Z" fill="#263238"/>
<path d="M167.515 279.329C167.515 276.707 168.982 275.139 171.017 275.139C173.051 275.139 174.544 276.699 174.544 279.329C174.544 281.958 173.059 283.519 171.017 283.519C168.974 283.519 167.515 281.951 167.515 279.329ZM173.61 279.329C173.61 277.128 172.551 275.919 171.017 275.919C169.482 275.919 168.432 277.128 168.432 279.329C168.432 281.529 169.491 282.739 171.017 282.739C172.542 282.739 173.61 281.529 173.61 279.329Z" fill="#263238"/>
<path d="M197.331 296.074H111.834C104.337 296.074 98.2594 301.761 98.2594 308.777V311.04C98.2594 318.055 104.337 323.743 111.834 323.743H197.331C204.828 323.743 210.905 318.055 210.905 311.04V308.777C210.905 301.761 204.828 296.074 197.331 296.074Z" fill="#EA6106"/>
<g opacity="0.3">
<path opacity="0.3" d="M197.331 296.074H111.834C104.337 296.074 98.2594 301.761 98.2594 308.777V311.04C98.2594 318.055 104.337 323.743 111.834 323.743H197.331C204.828 323.743 210.905 318.055 210.905 311.04V308.777C210.905 301.761 204.828 296.074 197.331 296.074Z" fill="black"/>
</g>
<path d="M192.954 296.074H107.456C99.9594 296.074 93.882 301.761 93.882 308.777V311.04C93.882 318.055 99.9594 323.743 107.456 323.743H192.954C200.451 323.743 206.528 318.055 206.528 311.04V308.777C206.528 301.761 200.451 296.074 192.954 296.074Z" fill="#EA6106"/>
<path d="M146.82 308.387C146.82 309.807 145.727 310.665 143.91 310.665H142.176V312.647H141.183V306.108H143.91C145.727 306.108 146.82 306.966 146.82 308.387ZM145.828 308.387C145.828 307.45 145.152 306.92 143.876 306.92H142.209V309.854H143.876C145.152 309.854 145.828 309.323 145.828 308.387Z" fill="white"/>
<path d="M152.398 311.016H148.679L147.912 312.647H146.886L150.055 306.108H151.055L154.232 312.647H153.182L152.398 311.016ZM152.048 310.236L150.539 307.029L149.029 310.306L152.048 310.236Z" fill="white"/>
<path d="M157.509 310.384V312.647H156.517V310.368L153.74 306.108H154.808L157.05 309.557L159.293 306.108H160.286L157.509 310.384Z" fill="white"/>
<path d="M165.997 251.129C166.524 251.094 167.047 251.01 167.556 250.88C168.998 250.444 170.196 249.494 170.892 248.234C171.124 247.802 171.295 247.343 171.4 246.869C171.487 246.34 171.517 245.804 171.492 245.269C171.492 244.141 171.492 242.915 171.492 241.594C171.492 238.949 171.492 235.945 171.425 232.629C171.358 229.313 171.383 225.669 171.358 221.759C171.358 220.784 171.358 219.793 171.358 218.779C171.406 217.78 171.149 216.789 170.616 215.923C170.072 215.033 169.252 214.317 168.265 213.871C167.22 213.431 166.07 213.256 164.93 213.364L134.388 213.473C133.079 213.48 131.816 213.926 130.828 214.729C129.851 215.521 129.212 216.615 129.027 217.811C128.954 218.412 128.931 219.017 128.96 219.621V221.447C128.96 222.664 128.96 223.874 128.96 225.068C128.96 229.843 128.96 234.431 128.96 238.855C128.96 241.048 128.96 243.194 128.96 245.269C128.877 246.271 129.069 247.275 129.518 248.188C129.97 249.059 130.679 249.79 131.561 250.294C133.296 251.387 135.43 250.997 137.348 251.075H142.918H159.735H164.305H165.497H165.897H165.497H164.305L159.735 251.129L142.918 251.246H137.348H134.38C133.319 251.247 132.278 250.977 131.37 250.466C130.426 249.929 129.667 249.149 129.185 248.219C128.705 247.262 128.495 246.206 128.576 245.152C128.576 243.077 128.576 240.931 128.576 238.738C128.576 234.345 128.535 229.734 128.518 224.951C128.518 223.757 128.518 222.547 128.518 221.33C128.518 220.729 128.518 220.113 128.518 219.504C128.495 218.879 128.517 218.254 128.585 217.632C128.79 216.341 129.482 215.162 130.536 214.308C131.603 213.441 132.966 212.959 134.38 212.95L164.913 212.872C166.104 212.769 167.303 212.96 168.39 213.426C169.441 213.908 170.312 214.675 170.892 215.626C171.451 216.549 171.72 217.602 171.667 218.662C171.667 219.668 171.667 220.667 171.667 221.642C171.667 225.544 171.667 229.188 171.667 232.512V241.477C171.667 242.796 171.667 244.021 171.667 245.152C171.688 245.701 171.649 246.25 171.55 246.791C171.43 247.275 171.249 247.744 171.008 248.188C170.645 248.828 170.148 249.392 169.546 249.848C168.945 250.304 168.251 250.642 167.506 250.841C167.122 250.939 166.728 250.996 166.331 251.012L165.997 251.129Z" fill="#EA6106"/>
<path d="M157.392 237.888H157.109H156.275L153.215 237.927L142.918 238.013H142.834V237.935C142.751 237.428 142.667 236.889 142.584 236.374C141.867 231.692 141.233 227.541 140.816 224.818L140.883 224.865H138.132H137.406C137.32 224.877 137.233 224.877 137.148 224.865H137.406H138.132L140.875 224.818H140.925V224.873C141.358 227.588 142.017 231.755 142.759 236.421C142.843 236.967 142.926 237.506 143.009 237.982L142.909 237.904H153.198H157.1L157.392 237.888Z" fill="#EA6106"/>
<path d="M142.484 235.165H142.768H143.601L146.703 235.118L157.384 235.032L157.292 235.102C157.601 233.417 157.926 231.599 158.268 229.71C158.451 228.743 158.618 227.791 158.785 226.886L158.885 226.987L146.294 227.026H141.55H142.559L146.286 226.979L158.876 226.878H158.985V226.979C158.818 227.892 158.651 228.844 158.468 229.812C158.126 231.7 157.793 233.518 157.484 235.204V235.274H157.409H146.728H142.559L142.484 235.165Z" fill="#EA6106"/>
<path d="M146.561 241.641C146.561 241.641 146.561 241.524 146.478 241.321C146.383 241.04 146.196 240.795 145.944 240.619C145.787 240.511 145.606 240.435 145.414 240.398C145.223 240.36 145.025 240.362 144.834 240.402C144.643 240.442 144.464 240.521 144.308 240.631C144.153 240.742 144.024 240.883 143.931 241.044C143.838 241.205 143.784 241.383 143.771 241.566C143.758 241.748 143.787 241.931 143.856 242.103C143.925 242.274 144.033 242.429 144.171 242.558C144.31 242.687 144.477 242.787 144.66 242.85C144.875 242.921 145.105 242.942 145.33 242.91C145.555 242.879 145.769 242.797 145.953 242.671C146.205 242.497 146.39 242.251 146.478 241.969C146.545 241.766 146.545 241.641 146.561 241.641C146.59 241.754 146.59 241.872 146.561 241.984C146.493 242.293 146.31 242.57 146.044 242.765C145.846 242.914 145.611 243.014 145.36 243.055C145.109 243.096 144.851 243.077 144.61 242.999C144.305 242.903 144.039 242.721 143.849 242.478C143.66 242.235 143.555 241.942 143.551 241.641C143.55 241.345 143.648 241.056 143.83 240.814C144.012 240.573 144.27 240.39 144.569 240.291C144.767 240.22 144.98 240.191 145.192 240.204C145.404 240.217 145.611 240.273 145.797 240.368C145.984 240.463 146.147 240.594 146.275 240.753C146.402 240.912 146.491 241.095 146.536 241.29C146.577 241.403 146.585 241.524 146.561 241.641V241.641Z" fill="#EA6106"/>
<path d="M155.875 241.579C155.875 241.579 155.875 241.454 155.791 241.251C155.698 240.972 155.511 240.728 155.258 240.556C155.072 240.431 154.856 240.351 154.629 240.322C154.402 240.293 154.172 240.318 153.957 240.393C153.699 240.487 153.477 240.652 153.321 240.867C153.164 241.081 153.081 241.335 153.082 241.594C153.083 241.853 153.17 242.106 153.329 242.318C153.489 242.53 153.714 242.691 153.974 242.78C154.187 242.854 154.417 242.877 154.643 242.847C154.869 242.817 155.083 242.735 155.266 242.609C155.517 242.428 155.703 242.181 155.8 241.898C155.858 241.696 155.858 241.579 155.875 241.579C155.904 241.689 155.904 241.804 155.875 241.914C155.807 242.223 155.623 242.5 155.358 242.694C155.134 242.869 154.861 242.98 154.572 243.013C154.282 243.047 153.989 243.003 153.726 242.885C153.462 242.768 153.241 242.583 153.087 242.351C152.933 242.119 152.853 241.851 152.856 241.579C152.856 241.282 152.954 240.992 153.136 240.749C153.318 240.506 153.576 240.322 153.874 240.221C154.114 240.139 154.373 240.117 154.625 240.155C154.878 240.193 155.115 240.291 155.316 240.439C155.583 240.634 155.769 240.91 155.841 241.22C155.884 241.335 155.896 241.458 155.875 241.579V241.579Z" fill="#EA6106"/>
<path d="M162.203 225.481C162.215 226.255 161.98 227.015 161.529 227.664C161.078 228.312 160.431 228.821 159.671 229.124C158.91 229.428 158.07 229.513 157.257 229.369C156.445 229.225 155.697 228.857 155.108 228.314C154.519 227.771 154.116 227.076 153.95 226.317C153.785 225.559 153.864 224.772 154.177 224.056C154.491 223.34 155.025 222.727 155.712 222.296C156.399 221.865 157.207 221.635 158.034 221.635C159.13 221.634 160.182 222.038 160.962 222.758C161.742 223.478 162.188 224.456 162.203 225.481V225.481Z" fill="#EA6106"/>
<path d="M158.56 224.014V226.948H157.834V224.561H157.209V224.014H158.56Z" fill="white"/>
<path d="M205.527 124.403H94.8909C92.9108 124.403 91.3055 125.905 91.3055 127.758V190.993C91.3055 192.846 92.9108 194.348 94.8909 194.348H205.527C207.508 194.348 209.113 192.846 209.113 190.993V127.758C209.113 125.905 207.508 124.403 205.527 124.403Z" fill="#EA6106"/>
<path d="M110.7 140.384C110.7 141.281 109.941 141.796 108.49 141.796H105.63V136.623H108.332C109.716 136.623 110.425 137.161 110.425 137.965C110.43 138.2 110.364 138.432 110.235 138.634C110.105 138.836 109.916 138.999 109.691 139.104C109.989 139.179 110.25 139.347 110.433 139.579C110.617 139.812 110.71 140.095 110.7 140.384V140.384ZM106.906 137.52V138.745H108.173C108.799 138.745 109.14 138.534 109.14 138.129C109.14 137.723 108.799 137.52 108.173 137.52H106.906ZM109.407 140.259C109.407 139.822 109.049 139.611 108.39 139.611H106.898V140.891H108.39C109.057 140.891 109.416 140.703 109.416 140.259H109.407Z" fill="white"/>
<path d="M115.311 140.688H112.742L112.251 141.796H110.941L113.443 136.623H114.702L117.203 141.796H115.861L115.311 140.688ZM114.91 139.775L114.035 137.793L113.201 139.775H114.91Z" fill="white"/>
<path d="M122.79 136.623V141.765H121.739L118.979 138.643V141.765H117.704V136.591H118.762L121.506 139.712V136.591L122.79 136.623Z" fill="white"/>
<path d="M126.108 139.759L125.366 140.485V141.765H124.099V136.591H125.366V139.002L127.818 136.591H129.235L126.95 138.932L129.377 141.765H127.876L126.108 139.759Z" fill="white"/>
<path d="M109.666 161.904H108.649V163.152H108.132V161.904H105.263V161.553L107.956 158.431H108.54L105.939 161.498H108.148V160.398H108.649V161.498H109.666V161.904Z" fill="white"/>
<path d="M113.393 161.787C113.393 162.567 112.776 163.191 111.55 163.191C110.881 163.214 110.228 162.996 109.724 162.583L109.983 162.192C110.407 162.563 110.97 162.762 111.55 162.746C112.384 162.746 112.859 162.38 112.859 161.787C112.859 161.194 112.426 160.843 111.483 160.843H111.125V160.491L112.534 158.845H109.933V158.408H113.201V158.759L111.767 160.445C112.851 160.491 113.393 161.03 113.393 161.787Z" fill="white"/>
<path d="M117.503 161.755C117.503 162.536 116.895 163.191 115.661 163.191C114.991 163.214 114.338 162.996 113.835 162.583L114.093 162.192C114.514 162.563 115.075 162.762 115.652 162.746C116.486 162.746 116.97 162.348 116.97 161.771C116.97 161.194 116.561 160.78 115.302 160.78H114.227L114.485 158.4H117.262V158.837H114.944L114.769 160.351H115.419C116.92 160.351 117.503 160.913 117.503 161.755Z" fill="white"/>
<path d="M121.973 161.732C121.97 161.937 121.922 162.14 121.832 162.327C121.741 162.513 121.611 162.681 121.448 162.818C121.285 162.955 121.093 163.059 120.885 163.123C120.677 163.188 120.457 163.211 120.238 163.191C118.888 163.191 118.162 162.317 118.162 160.85C118.162 159.383 119.104 158.392 120.48 158.392C120.898 158.377 121.312 158.466 121.681 158.65L121.472 159.04C121.173 158.882 120.832 158.807 120.488 158.822C119.388 158.822 118.687 159.477 118.687 160.765C118.68 160.895 118.68 161.025 118.687 161.155C118.837 160.898 119.063 160.687 119.339 160.548C119.614 160.41 119.927 160.349 120.238 160.374C120.449 160.348 120.663 160.363 120.868 160.419C121.072 160.474 121.261 160.569 121.424 160.696C121.587 160.824 121.72 160.982 121.815 161.16C121.909 161.339 121.963 161.533 121.973 161.732V161.732ZM121.456 161.732C121.456 161.108 120.964 160.71 120.18 160.71C120.021 160.693 119.859 160.706 119.706 160.75C119.552 160.794 119.41 160.866 119.288 160.964C119.166 161.061 119.067 161.181 118.996 161.316C118.926 161.451 118.886 161.598 118.879 161.748C118.879 162.271 119.338 162.762 120.213 162.762C120.368 162.78 120.524 162.767 120.673 162.724C120.821 162.681 120.959 162.609 121.076 162.514C121.193 162.418 121.287 162.301 121.353 162.169C121.418 162.037 121.453 161.893 121.456 161.748V161.732Z" fill="white"/>
<path d="M132.945 163.152L131.728 161.662L130.511 163.152H129.935L131.445 161.318L130.002 159.586H130.586L131.728 160.983L132.879 159.586H133.446L132.003 161.318L133.529 163.152H132.945Z" fill="white"/>
<path d="M136.814 163.152L135.605 161.662L134.38 163.152H133.796L135.305 161.318L133.871 159.586H134.455L135.597 160.983L136.739 159.586H137.306L135.872 161.318L137.398 163.152H136.814Z" fill="white"/>
<path d="M140.691 163.152L139.474 161.662L138.257 163.152H137.715L139.224 161.318L137.715 159.586H138.298L139.441 160.983L140.591 159.586H141.158L139.716 161.318L141.242 163.152H140.691Z" fill="white"/>
<path d="M144.56 163.152L143.351 161.662L142.134 163.152H141.55L143.059 161.318L141.625 159.586H142.201L143.351 160.983L144.493 159.586H145.06L143.626 161.318L145.144 163.152H144.56Z" fill="white"/>
<path d="M157.934 163.152L156.717 161.662L155.5 163.152H154.924L156.433 161.318L154.991 159.586H155.575L156.717 160.983L157.868 159.586H158.435L156.992 161.318L158.518 163.152H157.934Z" fill="white"/>
<path d="M161.803 163.152L160.594 161.662L159.393 163.152H158.81L160.319 161.318L158.885 159.586H159.46L160.611 160.983L161.753 159.586H162.32L160.886 161.318L162.403 163.152H161.803Z" fill="white"/>
<path d="M165.672 163.152L164.463 161.662L163.246 163.152H162.662L164.171 161.318L162.729 159.586H163.312L164.455 160.983L165.605 159.586H166.164L164.73 161.318L166.256 163.152H165.672Z" fill="white"/>
<path d="M169.549 163.152L168.34 161.662L167.114 163.152H166.539L168.048 161.318L166.606 159.586H167.189L168.34 160.983L169.482 159.586H170.049L168.615 161.318L170.133 163.152H169.549Z" fill="white"/>
<path d="M181.556 158.4V163.152H181.072V158.837H179.88V158.4H181.556Z" fill="white"/>
<path d="M186.125 161.787C186.125 162.567 185.508 163.191 184.282 163.191C183.613 163.214 182.96 162.996 182.456 162.583L182.706 162.192C183.134 162.563 183.7 162.762 184.282 162.746C185.116 162.746 185.583 162.38 185.583 161.787C185.583 161.194 185.158 160.843 184.216 160.843H183.857V160.491L185.258 158.845H182.665V158.408H185.925V158.759L184.491 160.445C185.583 160.491 186.125 161.03 186.125 161.787Z" fill="white"/>
<path d="M191.169 161.904H190.152V163.152H189.635V161.904H186.767V161.553L189.46 158.431H190.036L187.442 161.498H189.644V160.398H190.152V161.498H191.169V161.904Z" fill="white"/>
<path d="M195.088 162.715V163.152H191.528V162.832L193.638 160.897C194.213 160.367 194.321 160.047 194.321 159.719C194.321 159.173 193.904 158.829 193.129 158.829C192.87 158.815 192.612 158.855 192.372 158.947C192.133 159.039 191.918 159.18 191.745 159.36L191.37 159.063C191.598 158.833 191.877 158.653 192.189 158.535C192.5 158.418 192.835 158.367 193.171 158.385C194.204 158.385 194.838 158.876 194.838 159.664C194.827 159.955 194.747 160.24 194.603 160.498C194.458 160.756 194.254 160.981 194.004 161.155L192.278 162.715H195.088Z" fill="white"/>
<path d="M102.695 173.015C102.706 172.769 102.795 172.531 102.95 172.332C103.106 172.133 103.322 171.982 103.57 171.898C103.818 171.814 104.086 171.802 104.342 171.862C104.598 171.922 104.828 172.051 105.005 172.235L104.646 172.547C104.573 172.462 104.481 172.394 104.375 172.348C104.269 172.302 104.154 172.279 104.038 172.282C103.832 172.282 103.635 172.358 103.489 172.494C103.344 172.63 103.262 172.815 103.262 173.007C103.262 173.2 103.344 173.384 103.489 173.52C103.635 173.656 103.832 173.733 104.038 173.733C104.155 173.734 104.27 173.71 104.376 173.662C104.481 173.615 104.574 173.546 104.646 173.46L105.005 173.772C104.883 173.907 104.729 174.014 104.555 174.085C104.382 174.155 104.193 174.187 104.004 174.178C103.836 174.186 103.667 174.162 103.508 174.108C103.35 174.053 103.205 173.969 103.082 173.86C102.96 173.751 102.862 173.62 102.796 173.475C102.729 173.33 102.695 173.173 102.695 173.015Z" fill="white"/>
<path d="M106.864 173.663H105.739L105.522 174.146H104.946L106.03 171.876H106.581L107.665 174.146H107.073L106.864 173.663ZM106.681 173.265L106.297 172.391L105.914 173.265H106.681Z" fill="white"/>
<path d="M109.499 174.146L109.032 173.514H108.532V174.146H107.973V171.876H109.015C109.666 171.876 110.074 172.196 110.074 172.703C110.075 172.855 110.028 173.004 109.939 173.132C109.85 173.259 109.723 173.36 109.574 173.421L110.116 174.146H109.499ZM108.974 172.305H108.532V173.085H108.99C109.332 173.085 109.507 172.937 109.507 172.695C109.507 172.453 109.316 172.305 108.974 172.305Z" fill="white"/>
<path d="M110.308 173.92L110.5 173.53C110.745 173.687 111.036 173.769 111.333 173.764C111.667 173.764 111.8 173.663 111.8 173.522C111.8 173.093 110.391 173.389 110.391 172.547C110.391 172.157 110.725 171.837 111.417 171.837C111.709 171.831 111.998 171.902 112.251 172.04L112.084 172.438C111.878 172.325 111.646 172.264 111.408 172.258C111.075 172.258 110.95 172.375 110.95 172.523C110.95 172.937 112.359 172.648 112.359 173.483C112.359 173.858 112.025 174.185 111.333 174.185C110.97 174.199 110.612 174.106 110.308 173.92Z" fill="white"/>
<path d="M115.911 171.876V174.146H115.352V173.218H114.252V174.146H113.693V171.876H114.252V172.773H115.352V171.876H115.911Z" fill="white"/>
<path d="M116.344 173.015C116.329 172.767 116.394 172.521 116.531 172.308C116.667 172.095 116.868 171.925 117.109 171.82C117.349 171.715 117.618 171.68 117.88 171.72C118.142 171.76 118.385 171.872 118.578 172.042C118.771 172.213 118.905 172.433 118.962 172.676C119.02 172.918 118.998 173.171 118.901 173.402C118.803 173.633 118.633 173.831 118.414 173.97C118.195 174.11 117.936 174.185 117.67 174.185C117.5 174.195 117.329 174.172 117.169 174.117C117.008 174.063 116.861 173.978 116.737 173.868C116.613 173.759 116.514 173.626 116.446 173.48C116.379 173.333 116.344 173.175 116.344 173.015ZM118.421 173.015C118.417 172.875 118.37 172.739 118.284 172.624C118.198 172.509 118.078 172.421 117.939 172.37C117.8 172.318 117.647 172.307 117.501 172.337C117.355 172.367 117.221 172.436 117.117 172.537C117.013 172.638 116.943 172.765 116.916 172.903C116.889 173.04 116.906 173.183 116.965 173.311C117.024 173.44 117.123 173.549 117.248 173.626C117.374 173.702 117.521 173.742 117.67 173.741C117.772 173.743 117.872 173.726 117.966 173.69C118.06 173.654 118.145 173.6 118.215 173.532C118.286 173.464 118.341 173.382 118.376 173.293C118.411 173.205 118.426 173.11 118.421 173.015Z" fill="white"/>
<path d="M119.421 171.876H119.98V173.756H121.197V174.185H119.421V171.876Z" fill="white"/>
<path d="M121.514 171.876H122.615C122.782 171.863 122.951 171.882 123.11 171.934C123.27 171.985 123.416 172.066 123.54 172.173C123.664 172.28 123.762 172.409 123.83 172.553C123.898 172.698 123.933 172.854 123.933 173.011C123.933 173.169 123.898 173.324 123.83 173.469C123.762 173.613 123.664 173.743 123.54 173.849C123.416 173.956 123.27 174.037 123.11 174.089C122.951 174.14 122.782 174.159 122.615 174.146H121.514V171.876ZM122.581 173.717C122.78 173.717 122.971 173.643 123.112 173.512C123.253 173.38 123.332 173.201 123.332 173.015C123.332 172.829 123.253 172.65 123.112 172.518C122.971 172.387 122.78 172.313 122.581 172.313H122.073V173.756L122.581 173.717Z" fill="white"/>
<path d="M126.25 173.756V174.178H124.374V171.907H126.208V172.328H124.933V172.82H126.041V173.233H124.916V173.756H126.25Z" fill="white"/>
<path d="M128.243 174.146L127.776 173.514H127.259V174.146H126.7V171.876H127.751C128.393 171.876 128.801 172.196 128.801 172.703C128.802 172.855 128.755 173.004 128.666 173.132C128.577 173.259 128.45 173.36 128.301 173.421L128.843 174.146H128.243ZM127.717 172.305H127.259V173.085H127.709C128.051 173.085 128.226 172.937 128.226 172.695C128.226 172.453 128.059 172.305 127.709 172.305H127.717Z" fill="white"/>
<path d="M102.412 181.871L103.012 181.2C103.1 181.336 103.222 181.451 103.367 181.534C103.512 181.616 103.676 181.665 103.846 181.676C104.279 181.676 104.505 181.434 104.505 180.958V178.875H102.837V178.095H105.547V180.927C105.582 181.142 105.563 181.362 105.493 181.569C105.422 181.776 105.301 181.965 105.14 182.121C104.979 182.277 104.781 182.397 104.562 182.47C104.344 182.543 104.11 182.568 103.879 182.542C103.596 182.541 103.317 182.48 103.063 182.364C102.809 182.248 102.586 182.079 102.412 181.871V181.871Z" fill="white"/>
<path d="M106.306 181.871C106.303 181.792 106.318 181.713 106.35 181.639C106.381 181.565 106.428 181.498 106.488 181.442C106.549 181.385 106.62 181.341 106.699 181.312C106.778 181.282 106.863 181.268 106.948 181.27C107.033 181.267 107.119 181.28 107.199 181.309C107.278 181.338 107.351 181.382 107.412 181.439C107.473 181.495 107.521 181.562 107.553 181.637C107.585 181.711 107.6 181.791 107.598 181.871C107.6 181.952 107.585 182.032 107.553 182.107C107.521 182.181 107.473 182.249 107.413 182.306C107.352 182.363 107.279 182.408 107.199 182.438C107.119 182.468 107.034 182.482 106.948 182.48C106.862 182.482 106.777 182.468 106.697 182.438C106.618 182.408 106.546 182.363 106.485 182.306C106.425 182.249 106.378 182.181 106.347 182.106C106.316 182.031 106.302 181.951 106.306 181.871V181.871Z" fill="white"/>
<path d="M115.202 178.063L113.676 182.433H112.509L111.483 179.476L110.425 182.433H109.274L107.74 178.063H108.857L109.916 181.138L111.017 178.063H112.009L113.076 181.185L114.168 178.063H115.202Z" fill="white"/>
<path d="M115.636 178.063C115.654 177.915 115.73 177.778 115.849 177.678C115.968 177.579 116.122 177.524 116.282 177.524C116.442 177.524 116.596 177.579 116.715 177.678C116.834 177.778 116.91 177.915 116.928 178.063C116.91 178.212 116.834 178.349 116.715 178.449C116.596 178.548 116.442 178.603 116.282 178.603C116.122 178.603 115.968 178.548 115.849 178.449C115.73 178.349 115.654 178.212 115.636 178.063V178.063ZM115.761 179.078H116.803V182.433H115.761V179.078Z" fill="white"/>
<path d="M117.77 177.806H118.804V182.433H117.77V177.806Z" fill="white"/>
<path d="M119.771 177.806H120.814V182.433H119.771V177.806Z" fill="white"/>
<path d="M121.647 178.063C121.649 177.987 121.668 177.912 121.702 177.843C121.737 177.774 121.786 177.712 121.847 177.661C121.908 177.611 121.98 177.573 122.057 177.549C122.135 177.526 122.217 177.518 122.298 177.525C122.377 177.518 122.457 177.525 122.533 177.548C122.609 177.571 122.68 177.607 122.74 177.656C122.8 177.705 122.849 177.765 122.883 177.833C122.918 177.9 122.937 177.973 122.94 178.048C122.922 178.196 122.846 178.334 122.727 178.433C122.608 178.533 122.453 178.588 122.294 178.588C122.134 178.588 121.98 178.533 121.861 178.433C121.741 178.334 121.666 178.196 121.647 178.048V178.063ZM121.773 179.078H122.815V182.433H121.773V179.078Z" fill="white"/>
<path d="M126.95 180.521V182.433H125.983V182.012C125.864 182.175 125.699 182.305 125.506 182.387C125.314 182.47 125.101 182.502 124.891 182.48C124.057 182.48 123.548 182.043 123.548 181.466C123.548 180.888 123.99 180.459 125.083 180.459H125.916C125.916 180.045 125.65 179.804 125.083 179.804C124.713 179.798 124.353 179.908 124.057 180.116L123.682 179.429C124.143 179.156 124.679 179.015 125.224 179.023C126.317 179.023 126.95 179.499 126.95 180.521ZM125.916 181.372V181.029H125.208C124.724 181.029 124.566 181.2 124.566 181.427C124.566 181.653 124.791 181.832 125.158 181.832C125.32 181.838 125.479 181.797 125.615 181.715C125.751 181.632 125.856 181.513 125.916 181.372V181.372Z" fill="white"/>
<path d="M133.946 180.513V182.433H132.912V180.662C132.912 180.116 132.645 179.881 132.228 179.881C131.811 179.881 131.436 180.162 131.436 180.763V182.449H130.394V180.677C130.394 180.131 130.152 179.897 129.719 179.897C129.285 179.897 128.926 180.178 128.926 180.779V182.464H127.893V179.109H128.885V179.491C129.028 179.348 129.203 179.234 129.397 179.159C129.591 179.084 129.8 179.048 130.01 179.054C130.241 179.044 130.47 179.089 130.676 179.186C130.882 179.283 131.058 179.429 131.186 179.608C131.345 179.432 131.545 179.29 131.77 179.194C131.995 179.099 132.24 179.051 132.487 179.054C132.69 179.044 132.893 179.075 133.082 179.146C133.271 179.217 133.441 179.326 133.58 179.465C133.72 179.604 133.824 179.77 133.888 179.951C133.951 180.132 133.971 180.324 133.946 180.513V180.513Z" fill="white"/>
<path d="M134.53 182.121L134.88 181.427C135.257 181.633 135.685 181.743 136.122 181.746C136.606 181.746 136.781 181.629 136.781 181.442C136.781 180.896 134.613 181.442 134.613 180.116C134.613 179.476 135.23 179.023 136.281 179.023C136.758 179.016 137.23 179.118 137.656 179.32L137.306 180.014C136.994 179.847 136.64 179.761 136.281 179.765C135.814 179.765 135.614 179.897 135.614 180.077C135.614 180.646 137.773 180.077 137.773 181.419C137.773 182.043 137.156 182.48 136.105 182.48C135.556 182.492 135.012 182.369 134.53 182.121V182.121Z" fill="white"/>
<path d="M176.37 180.381C176.37 178.937 177.203 178.126 178.371 178.126C179.538 178.126 180.372 178.906 180.372 180.381C180.372 181.856 179.538 182.644 178.371 182.644C177.203 182.644 176.37 181.824 176.37 180.381ZM179.28 180.381C179.28 179.39 178.913 178.976 178.371 178.976C177.829 178.976 177.462 179.39 177.462 180.381C177.462 181.372 177.837 181.785 178.371 181.785C178.904 181.785 179.28 181.372 179.28 180.381Z" fill="white"/>
<path d="M184.741 181.185C184.736 181.391 184.686 181.595 184.593 181.782C184.501 181.97 184.367 182.137 184.202 182.274C184.037 182.411 183.843 182.515 183.633 182.578C183.423 182.642 183.201 182.664 182.982 182.644C181.689 182.644 180.889 181.863 180.889 180.475C180.856 180.169 180.894 179.86 181 179.57C181.107 179.279 181.279 179.013 181.506 178.791C181.733 178.569 182.008 178.395 182.313 178.281C182.618 178.168 182.946 178.118 183.273 178.134C183.728 178.12 184.177 178.223 184.574 178.43L184.174 179.21C183.912 179.057 183.607 178.981 183.298 178.992C183.119 178.981 182.939 179.007 182.771 179.067C182.603 179.128 182.451 179.222 182.326 179.343C182.2 179.464 182.105 179.609 182.045 179.768C181.986 179.927 181.964 180.096 181.981 180.264C182.136 180.129 182.319 180.025 182.518 179.958C182.717 179.891 182.929 179.863 183.14 179.874C183.338 179.858 183.537 179.879 183.726 179.937C183.915 179.995 184.089 180.088 184.239 180.21C184.388 180.333 184.51 180.482 184.596 180.65C184.682 180.817 184.732 180.999 184.741 181.185V181.185ZM183.699 181.239C183.698 181.146 183.677 181.054 183.635 180.968C183.594 180.883 183.534 180.807 183.459 180.746C183.385 180.684 183.297 180.637 183.201 180.609C183.106 180.582 183.006 180.573 182.907 180.584C182.805 180.571 182.701 180.578 182.603 180.604C182.504 180.631 182.413 180.676 182.334 180.738C182.255 180.8 182.192 180.876 182.147 180.963C182.102 181.049 182.076 181.143 182.073 181.239C182.073 181.614 182.373 181.887 182.907 181.887C183.005 181.899 183.106 181.891 183.201 181.865C183.296 181.838 183.384 181.792 183.459 181.731C183.534 181.669 183.594 181.594 183.635 181.509C183.677 181.424 183.698 181.332 183.699 181.239V181.239Z" fill="white"/>
<path d="M186.909 177.314H187.843L185.641 183.19H184.716L186.909 177.314Z" fill="white"/>
<path d="M191.295 181.739V182.566H187.743V181.91L189.544 180.35C189.96 179.983 190.036 179.757 190.036 179.569C190.036 179.226 189.777 179.023 189.285 179.023C189.098 179.017 188.912 179.053 188.744 179.13C188.575 179.206 188.429 179.319 188.318 179.46L187.534 178.992C187.75 178.729 188.032 178.52 188.355 178.384C188.678 178.247 189.032 178.188 189.385 178.212C190.427 178.212 191.119 178.711 191.119 179.499C191.114 179.77 191.041 180.036 190.906 180.276C190.772 180.515 190.579 180.722 190.344 180.88L189.268 181.824L191.295 181.739Z" fill="white"/>
<path d="M195.947 181.645H195.188V182.566H194.138V181.645H191.636V180.966L193.838 178.196H194.972L192.929 180.826H194.188V179.999H195.205V180.818H195.964L195.947 181.645Z" fill="white"/>
<g opacity="0.2">
<path opacity="0.2" d="M176.395 143.856C175.938 142.317 174.919 140.977 173.517 140.068C172.114 139.158 170.415 138.737 168.715 138.878C167.644 138.934 166.591 139.167 165.605 139.564C163.179 140.579 161.486 143.271 162.27 145.643C162.929 147.578 164.938 148.811 166.931 149.622C168.924 150.434 171.458 151.034 173.518 150.129C174.49 149.647 175.293 148.913 175.832 148.015C176.37 147.117 176.62 146.093 176.553 145.065C176.542 144.658 176.489 144.253 176.395 143.856Z" fill="white"/>
</g>
<g opacity="0.2">
<path opacity="0.2" d="M205.252 124.403H95.191C94.6779 124.403 94.1698 124.498 93.6958 124.682C93.2218 124.866 92.7913 125.136 92.4288 125.476C92.0664 125.815 91.7791 126.219 91.5835 126.663C91.3879 127.107 91.2878 127.583 91.2889 128.063V146.524C98.2344 151.066 107.781 151.861 116.253 150.207C126.258 148.249 135.272 143.473 144.602 139.556C153.932 135.639 164.121 132.534 174.168 134.094C183.657 135.616 191.745 141.117 200.316 145.237C203.134 146.6 206.082 147.713 209.121 148.561V128.063C209.121 127.099 208.715 126.174 207.991 125.489C207.266 124.804 206.282 124.413 205.252 124.403V124.403Z" fill="white"/>
</g>
<path d="M86.2731 185.734C86.2802 181.34 85.022 177.032 82.6418 173.301C80.2616 169.569 76.855 166.564 72.8096 164.628C68.7642 162.691 64.2425 161.901 59.7591 162.346C55.2756 162.792 51.0105 164.455 47.4489 167.148C43.8874 169.84 41.1726 173.454 39.6133 177.576C38.0541 181.699 37.713 186.166 38.6291 190.468C39.5451 194.771 41.6813 198.736 44.7948 201.913C47.9082 205.09 51.8737 207.351 56.2401 208.439L61.9989 218.233L67.4899 208.684C72.8305 207.511 77.6016 204.598 81.0163 200.426C84.4309 196.254 86.2851 191.072 86.2731 185.734Z" fill="#263238" stroke="#263238" stroke-linecap="round" stroke-linejoin="round"/>
<path d="M63.4225 198.531V201.94H60.5455V198.66C57.9885 198.57 55.5064 197.727 53.38 196.226L54.9678 192.531C56.6205 193.742 58.5419 194.482 60.5455 194.679V189.609C57.3563 188.793 53.76 187.662 53.76 183.322C53.76 180.115 55.9721 177.351 60.5455 176.806V173.427H63.4225V176.735C65.4794 176.862 67.4788 177.5 69.2581 178.597L67.8195 182.32C66.4659 181.496 64.9719 180.96 63.4225 180.745V185.915C66.6117 186.702 70.1266 187.819 70.1266 192.101C70.1402 195.223 67.9417 197.959 63.4225 198.531ZM60.5455 185.127V180.831C59.0255 181.189 58.4148 182.077 58.4148 183.065C58.4148 184.053 59.2834 184.697 60.5455 185.127ZM65.4853 192.431C65.4853 191.371 64.6575 190.798 63.4225 190.34V194.536C64.8611 194.192 65.4853 193.404 65.4853 192.431Z" fill="#EA6106"/>
</g>
<defs>
<clipPath id="clip0_4_431">
<rect width="314" height="389" fill="white" transform="translate(0 -17)"/>
</clipPath>
</defs>
</svg>
